<svg width="35" height="34" viewBox="0 0 35 34" fill="none" xmlns="http://www.w3.org/2000/svg">
<path d="M17.4999 14.6997C20.3753 14.6997 22.7062 12.3982 22.7062 9.55907C22.7062 6.71999 20.3753 4.41846 17.4999 4.41846C14.6246 4.41846 12.2937 6.71999 12.2937 9.55907C12.2937 12.3982 14.6246 14.6997 17.4999 14.6997Z" fill="#EBEBEB"/>
<path d="M9.60314 10.0733H10.1281V9.60302C10.1313 8.2354 10.5172 6.89596 11.242 5.73621C11.9668 4.57646 13.0018 3.64269 14.2297 3.04053C13.8662 2.20333 13.2827 1.48023 12.5412 0.948011C11.7997 0.415796 10.9279 0.0943457 10.0184 0.0178027C9.10893 -0.0587404 8.19568 0.112482 7.37568 0.513283C6.55568 0.914085 5.85954 1.5295 5.3612 2.29416C4.86287 3.05883 4.58095 3.94419 4.54538 4.85621C4.50981 5.76823 4.72193 6.67286 5.1592 7.47401C5.59647 8.27516 6.24257 8.94292 7.02887 9.40636C7.81517 9.86981 8.71231 10.1116 9.62501 10.1061L9.60314 10.0733ZM24.8937 9.55927V10.0296H25.4187C26.3193 10.0205 27.2007 9.7689 27.9703 9.30114C28.7399 8.83338 29.3692 8.1668 29.7918 7.37156C30.2145 6.57633 30.415 5.68185 30.3722 4.78228C30.3293 3.88271 30.0448 3.01132 29.5485 2.25983C29.0522 1.50834 28.3625 0.904545 27.5519 0.512001C26.7414 0.119457 25.84 -0.0473188 24.9427 0.029228C24.0454 0.105775 23.1853 0.422813 22.4529 0.946972C21.7206 1.47113 21.1431 2.18302 20.7812 3.00772C22.0096 3.60753 23.0456 4.53893 23.7724 5.69667C24.4991 6.85442 24.8875 8.19235 24.8937 9.55927ZM22.1922 15.214C24.3668 15.6444 26.4695 16.3809 28.4375 17.4015C28.7147 17.5538 28.9658 17.7495 29.1812 17.9811H35V14.2405C35.001 14.097 34.9629 13.956 34.8896 13.8326C34.8164 13.7093 34.7108 13.6083 34.5844 13.5405C31.7495 12.0577 28.596 11.2881 25.3969 11.2983H24.675C24.2959 12.8391 23.4242 14.214 22.1922 15.214ZM4.9547 20.103C4.95271 19.5522 5.10147 19.0113 5.38488 18.5389C5.66828 18.0666 6.07553 17.6808 6.56251 17.4233C8.53048 16.4028 10.6332 15.6663 12.8078 15.2358C11.5818 14.2444 10.7106 12.8819 10.325 11.353H9.60314C6.40395 11.3428 3.25048 12.1124 0.415646 13.5952C0.289174 13.663 0.183614 13.764 0.110364 13.8873C0.037115 14.0107 -0.00103941 14.1517 2.15378e-05 14.2952V21.2843H4.9547V20.103ZM21.2844 26.4139H27.8031V27.9452H21.2844V26.4139Z" fill="#EBEBEB"/>
<path d="M33.6985 20.475H26.1844V19.3812C26.1844 19.0912 26.0692 18.813 25.864 18.6078C25.6589 18.4027 25.3807 18.2875 25.0906 18.2875C24.8006 18.2875 24.5224 18.4027 24.3173 18.6078C24.1121 18.813 23.9969 19.0912 23.9969 19.3812V20.475H21.875V17.3797C20.436 17.0775 18.9704 16.9199 17.5 16.9094C14.0479 16.895 10.6451 17.7288 7.59067 19.3375C7.45462 19.4081 7.34074 19.5149 7.2616 19.6461C7.18246 19.7774 7.14115 19.928 7.14223 20.0812V26.2172H14.9188V32.8781C14.9188 33.1682 15.034 33.4464 15.2391 33.6515C15.4443 33.8566 15.7225 33.9718 16.0125 33.9718H33.6985C33.9885 33.9718 34.2667 33.8566 34.4718 33.6515C34.677 33.4464 34.7922 33.1682 34.7922 32.8781V21.5687C34.7922 21.2787 34.677 21.0005 34.4718 20.7953C34.2667 20.5902 33.9885 20.475 33.6985 20.475ZM32.6047 31.8062H17.1063V22.6625H23.9969V23.6578C23.9969 23.9479 24.1121 24.2261 24.3173 24.4312C24.5224 24.6363 24.8006 24.7515 25.0906 24.7515C25.3807 24.7515 25.6589 24.6363 25.864 24.4312C26.0692 24.2261 26.1844 23.9479 26.1844 23.6578V22.6625H32.6047V31.8062Z" fill="#EBEBEB"/>
</svg>
