<svg width="38" height="38" viewBox="0 0 38 38" fill="none" xmlns="http://www.w3.org/2000/svg">
<g clip-path="url(#clip0_1_2451)">
<path d="M34.4375 0.890518H3.5625C2.86197 0.883389 2.18722 1.15445 1.68631 1.64423C1.18539 2.13401 0.899238 2.8025 0.890625 3.50302V34.5027C0.900795 35.2022 1.18764 35.8692 1.68838 36.3577C2.18912 36.8462 2.86298 37.1164 3.5625 37.1093H34.4375C35.1381 37.1148 35.8124 36.8428 36.313 36.3528C36.8137 35.8627 37.1 35.1943 37.1094 34.4938V3.49411C37.0969 2.79565 36.8092 2.13035 36.3089 1.64282C35.8086 1.15528 35.1361 0.88493 34.4375 0.890518Z" fill="#0076B2"/>
<path d="M6.25221 14.4668H11.6286V31.7657H6.25221V14.4668ZM8.9419 5.85742C9.55854 5.85742 10.1613 6.04032 10.674 6.38297C11.1867 6.72562 11.5862 7.21264 11.8221 7.7824C12.0579 8.35216 12.1195 8.97908 11.999 9.58383C11.8784 10.1886 11.5813 10.744 11.145 11.1798C10.7088 11.6157 10.1531 11.9123 9.54821 12.0323C8.94334 12.1522 8.31648 12.09 7.74694 11.8537C7.1774 11.6173 6.69077 11.2173 6.34861 10.7043C6.00644 10.1913 5.82412 9.58829 5.82471 8.97164C5.8255 8.14543 6.15426 7.35332 6.73876 6.76938C7.32326 6.18543 8.11568 5.85742 8.9419 5.85742ZM15.0011 14.4668H20.1549V16.8418H20.2261C20.9446 15.4821 22.6961 14.0482 25.3116 14.0482C30.7563 14.0363 31.7656 17.6196 31.7656 22.2657V31.7657H26.3892V23.3493C26.3892 21.3454 26.3536 18.7655 23.5956 18.7655C20.8377 18.7655 20.3686 20.9505 20.3686 23.2187V31.7657H15.0011V14.4668Z" fill="white"/>
</g>
<defs>
<clipPath id="clip0_1_2451">
<rect width="38" height="38" fill="white"/>
</clipPath>
</defs>
</svg>
