<svg width="35" height="35" viewBox="0 0 35 35" fill="none" xmlns="http://www.w3.org/2000/svg">
<path d="M27.7083 5.83347H21.6125C21.3139 4.98098 20.7577 4.24236 20.021 3.71978C19.2842 3.19721 18.4033 2.9165 17.5 2.9165C16.5967 2.9165 15.7158 3.19721 14.979 3.71978C14.2423 4.24236 13.6861 4.98098 13.3875 5.83347H7.29167C6.51883 5.83577 5.7783 6.14381 5.23182 6.69029C4.68534 7.23677 4.37731 7.97729 4.375 8.75013V29.1668C4.37731 29.9396 4.68534 30.6802 5.23182 31.2266C5.7783 31.7731 6.51883 32.0812 7.29167 32.0835H27.7083C28.4812 32.0812 29.2217 31.7731 29.7682 31.2266C30.3147 30.6802 30.6227 29.9396 30.625 29.1668V8.75013C30.6227 7.97729 30.3147 7.23677 29.7682 6.69029C29.2217 6.14381 28.4812 5.83577 27.7083 5.83347ZM17.5 5.83347C17.7884 5.83347 18.0704 5.919 18.3102 6.07924C18.55 6.23948 18.7369 6.46724 18.8473 6.73372C18.9577 7.00019 18.9866 7.29342 18.9303 7.57631C18.874 7.85919 18.7351 8.11904 18.5312 8.323C18.3272 8.52695 18.0674 8.66584 17.7845 8.72211C17.5016 8.77838 17.2084 8.7495 16.9419 8.63912C16.6754 8.52875 16.4477 8.34183 16.2874 8.10201C16.1272 7.86218 16.0417 7.58023 16.0417 7.2918C16.0428 6.90538 16.1968 6.53512 16.4701 6.26188C16.7433 5.98864 17.1136 5.83462 17.5 5.83347ZM14.5833 13.1251L18.6521 17.1997L22.3271 13.5247L20.4167 11.6668H26.25V17.5001L24.3892 15.5883L18.655 21.3268L14.5833 17.2522L10.8121 21.0205L8.75 18.9585L14.5833 13.1251ZM27.7083 27.7085H7.29167V24.7918H27.7083V27.7085Z" fill="#EBEBEB"/>
</svg>
