<svg width="27" height="27" viewBox="0 0 27 27" fill="none" xmlns="http://www.w3.org/2000/svg">
<path d="M9.16073 12.5357C10.3116 12.5357 11.4153 12.0786 12.2291 11.2648C13.0428 10.451 13.5 9.34731 13.5 8.19646C13.5 7.04561 13.0428 5.9419 12.2291 5.12812C11.4153 4.31435 10.3116 3.85718 9.16073 3.85718C8.00988 3.85718 6.90617 4.31435 6.09239 5.12812C5.27862 5.9419 4.82145 7.04561 4.82145 8.19646C4.82145 9.34731 5.27862 10.451 6.09239 11.2648C6.90617 12.0786 8.00988 12.5357 9.16073 12.5357ZM22.6607 9.16075C22.6607 9.60396 22.5734 10.0428 22.4038 10.4523C22.2342 10.8618 21.9856 11.2338 21.6722 11.5472C21.3588 11.8606 20.9868 12.1092 20.5773 12.2788C20.1678 12.4485 19.7289 12.5357 19.2857 12.5357C18.8425 12.5357 18.4037 12.4485 17.9942 12.2788C17.5847 12.1092 17.2126 11.8606 16.8992 11.5472C16.5858 11.2338 16.3372 10.8618 16.1676 10.4523C15.998 10.0428 15.9107 9.60396 15.9107 9.16075C15.9107 8.26564 16.2663 7.4072 16.8992 6.77426C17.5322 6.14133 18.3906 5.78575 19.2857 5.78575C20.1808 5.78575 21.0393 6.14133 21.6722 6.77426C22.3052 7.4072 22.6607 8.26564 22.6607 9.16075ZM1.92859 16.634C1.92859 16.0585 2.15718 15.5067 2.56406 15.0998C2.97095 14.6929 3.52281 14.4643 4.09823 14.4643H14.2232C14.4142 14.4643 14.5993 14.4894 14.7758 14.5357C14.0669 15.2102 13.5028 16.0219 13.1177 16.9214C12.7326 17.8209 12.5346 18.7894 12.5357 19.7679C12.5357 20.4091 12.6187 21.0301 12.7758 21.6213C11.8357 21.9636 10.6515 22.1786 9.16073 22.1786C1.92859 22.1786 1.92859 17.1161 1.92859 17.1161V16.634ZM26.0357 19.7679C26.0357 21.4302 25.3754 23.0245 24.1999 24.1999C23.0245 25.3754 21.4302 26.0357 19.7679 26.0357C18.1055 26.0357 16.5113 25.3754 15.3358 24.1999C14.1604 23.0245 13.5 21.4302 13.5 19.7679C13.5 18.1056 14.1604 16.5113 15.3358 15.3358C16.5113 14.1604 18.1055 13.5 19.7679 13.5C21.4302 13.5 23.0245 14.1604 24.1999 15.3358C25.3754 16.5113 26.0357 18.1056 26.0357 19.7679ZM20.25 15.9107C20.25 15.7829 20.1992 15.6602 20.1088 15.5698C20.0184 15.4794 19.8957 15.4286 19.7679 15.4286C19.64 15.4286 19.5174 15.4794 19.4269 15.5698C19.3365 15.6602 19.2857 15.7829 19.2857 15.9107V19.2857H15.9107C15.7829 19.2857 15.6602 19.3365 15.5698 19.427C15.4794 19.5174 15.4286 19.64 15.4286 19.7679C15.4286 19.8958 15.4794 20.0184 15.5698 20.1088C15.6602 20.1992 15.7829 20.25 15.9107 20.25H19.2857V23.625C19.2857 23.7529 19.3365 23.8755 19.4269 23.966C19.5174 24.0564 19.64 24.1072 19.7679 24.1072C19.8957 24.1072 20.0184 24.0564 20.1088 23.966C20.1992 23.8755 20.25 23.7529 20.25 23.625V20.25H23.625C23.7529 20.25 23.8755 20.1992 23.9659 20.1088C24.0564 20.0184 24.1072 19.8958 24.1072 19.7679C24.1072 19.64 24.0564 19.5174 23.9659 19.427C23.8755 19.3365 23.7529 19.2857 23.625 19.2857H20.25V15.9107Z" fill="#555555"/>
</svg>
