<svg width="26" height="25" viewBox="0 0 26 25" fill="none" xmlns="http://www.w3.org/2000/svg">
<path d="M19.9585 10.6438H20.9682C21.236 10.6438 21.4929 10.7502 21.6822 10.9395C21.8716 11.1289 21.978 11.3857 21.978 11.6535V21.7508C21.978 22.0186 21.8716 22.2754 21.6822 22.4648C21.4929 22.6541 21.236 22.7605 20.9682 22.7605H4.81262C4.54482 22.7605 4.288 22.6541 4.09864 22.4648C3.90928 22.2754 3.80289 22.0186 3.80289 21.7508L3.80289 11.6535C3.80289 11.3857 3.90928 11.1289 4.09864 10.9395C4.288 10.7502 4.54482 10.6438 4.81262 10.6438H5.82235V9.63405C5.82235 8.70586 6.00517 7.78675 6.36037 6.92921C6.71558 6.07167 7.23621 5.29249 7.89254 4.63616C8.54887 3.97983 9.32805 3.4592 10.1856 3.10399C11.0431 2.74879 11.9622 2.56597 12.8904 2.56597C13.8186 2.56597 14.7377 2.74879 15.5953 3.10399C16.4528 3.4592 17.232 3.97983 17.8883 4.63616C18.5447 5.29249 19.0653 6.07167 19.4205 6.92921C19.7757 7.78675 19.9585 8.70586 19.9585 9.63405V10.6438ZM5.82235 12.6632L5.82235 20.741H19.9585V12.6632L5.82235 12.6632ZM11.8807 14.6827H13.9002L13.9002 18.7216H11.8807L11.8807 14.6827ZM17.9391 10.6438V9.63405C17.9391 8.29507 17.4072 7.01093 16.4604 6.06413C15.5136 5.11733 14.2294 4.58542 12.8904 4.58542C11.5515 4.58542 10.2673 5.11733 9.32051 6.06413C8.37371 7.01093 7.8418 8.29507 7.8418 9.63405L7.8418 10.6438H17.9391Z" fill="white"/>
</svg>
