<svg width="23" height="23" viewBox="0 0 23 23" fill="none" xmlns="http://www.w3.org/2000/svg">
<circle cx="11.5" cy="11.5" r="11" stroke="white"/>
<path d="M20.1 12.2147C20.1 12.4443 19.9982 12.6645 19.8171 12.8269C19.6359 12.9893 19.3902 13.0805 19.134 13.0805H13.016V18.5637C13.016 18.7933 12.9142 19.0135 12.7331 19.1758C12.5519 19.3382 12.3062 19.4294 12.05 19.4294C11.7938 19.4294 11.5481 19.3382 11.3669 19.1758C11.1858 19.0135 11.084 18.7933 11.084 18.5637V13.0805H4.966C4.7098 13.0805 4.4641 12.9893 4.28293 12.8269C4.10177 12.6645 4 12.4443 4 12.2147C4 11.9851 4.10177 11.7649 4.28293 11.6025C4.4641 11.4402 4.7098 11.3489 4.966 11.3489H11.084V5.86577C11.084 5.63615 11.1858 5.41594 11.3669 5.25358C11.5481 5.09121 11.7938 5 12.05 5C12.3062 5 12.5519 5.09121 12.7331 5.25358C12.9142 5.41594 13.016 5.63615 13.016 5.86577V11.3489H19.134C19.3902 11.3489 19.6359 11.4402 19.8171 11.6025C19.9982 11.7649 20.1 11.9851 20.1 12.2147Z" fill="#EBEBEB"/>
</svg>
