<svg width="25" height="27" viewBox="0 0 25 27" fill="none" xmlns="http://www.w3.org/2000/svg">
<path fill-rule="evenodd" clip-rule="evenodd" d="M19.0718 8.3177C19.3949 8.04865 19.8115 7.91889 20.2302 7.95696C20.6489 7.99502 21.0353 8.19778 21.3046 8.52067L24.6077 12.4851C24.865 12.8094 24.9853 13.2214 24.9429 13.6332C24.9004 14.045 24.6987 14.4239 24.3806 14.6889C24.0626 14.9539 23.6536 15.0841 23.2409 15.0516C22.8282 15.019 22.4445 14.8264 22.172 14.5148L18.8688 10.5504C18.5998 10.2274 18.47 9.81073 18.5081 9.39205C18.5462 8.97336 18.7489 8.58693 19.0718 8.3177Z" fill="#EBEBEB"/>
<path fill-rule="evenodd" clip-rule="evenodd" d="M19.0719 18.6822C18.7488 18.4132 18.5457 18.0269 18.5074 17.6082C18.469 17.1895 18.5985 16.7727 18.8673 16.4495L22.1721 12.4851C22.3035 12.3195 22.4667 12.1818 22.6521 12.0802C22.8376 11.9785 23.0414 11.915 23.2518 11.8934C23.4621 11.8717 23.6746 11.8923 23.8769 11.954C24.0791 12.0157 24.267 12.1172 24.4295 12.2526C24.5919 12.3879 24.7256 12.5544 24.8228 12.7422C24.9199 12.93 24.9785 13.1354 24.9951 13.3462C25.0117 13.557 24.986 13.7689 24.9195 13.9697C24.853 14.1704 24.747 14.3557 24.6078 14.5149L21.3046 18.4793C21.0354 18.8022 20.649 19.0049 20.2303 19.043C19.8116 19.081 19.3949 18.9513 19.0719 18.6822Z" fill="#EBEBEB"/>
<path fill-rule="evenodd" clip-rule="evenodd" d="M22.9934 13.5C22.9934 13.9206 22.8264 14.3239 22.529 14.6213C22.2316 14.9187 21.8283 15.0858 21.4077 15.0858H11.1003C10.6797 15.0858 10.2764 14.9187 9.97899 14.6213C9.6816 14.3239 9.51453 13.9206 9.51453 13.5C9.51453 13.0794 9.6816 12.6761 9.97899 12.3787C10.2764 12.0813 10.6797 11.9142 11.1003 11.9142H21.4077C21.8283 11.9142 22.2316 12.0813 22.529 12.3787C22.8264 12.6761 22.9934 13.0794 22.9934 13.5ZM0 2.39972C0 1.97915 0.16707 1.57581 0.464457 1.27842C0.761843 0.981035 1.16519 0.813965 1.58575 0.813965H15.8575C16.2781 0.813965 16.6815 0.981035 16.9788 1.27842C17.2762 1.57581 17.4433 1.97915 17.4433 2.39972C17.4433 2.82029 17.2762 3.22363 16.9788 3.52102C16.6815 3.8184 16.2781 3.98547 15.8575 3.98547H1.58575C1.16519 3.98547 0.761843 3.8184 0.464457 3.52102C0.16707 3.22363 0 2.82029 0 2.39972ZM0 24.6003C0 24.1797 0.16707 23.7764 0.464457 23.479C0.761843 23.1816 1.16519 23.0145 1.58575 23.0145H15.8575C16.2781 23.0145 16.6815 23.1816 16.9788 23.479C17.2762 23.7764 17.4433 24.1797 17.4433 24.6003C17.4433 25.0209 17.2762 25.4242 16.9788 25.7216C16.6815 26.019 16.2781 26.186 15.8575 26.186H1.58575C1.16519 26.186 0.761843 26.019 0.464457 25.7216C0.16707 25.4242 0 25.0209 0 24.6003Z" fill="#EBEBEB"/>
<path fill-rule="evenodd" clip-rule="evenodd" d="M15.8575 0.813965C16.2781 0.813965 16.6815 0.981035 16.9788 1.27842C17.2762 1.57581 17.4433 1.97915 17.4433 2.39972V8.74274C17.4433 9.16331 17.2762 9.56665 16.9788 9.86404C16.6815 10.1614 16.2781 10.3285 15.8575 10.3285C15.437 10.3285 15.0336 10.1614 14.7362 9.86404C14.4389 9.56665 14.2718 9.16331 14.2718 8.74274V2.39972C14.2718 1.97915 14.4389 1.57581 14.7362 1.27842C15.0336 0.981035 15.437 0.813965 15.8575 0.813965ZM15.8575 16.6715C16.2781 16.6715 16.6815 16.8386 16.9788 17.136C17.2762 17.4334 17.4433 17.8367 17.4433 18.2573V24.6003C17.4433 25.0209 17.2762 25.4242 16.9788 25.7216C16.6815 26.019 16.2781 26.186 15.8575 26.186C15.437 26.186 15.0336 26.019 14.7362 25.7216C14.4389 25.4242 14.2718 25.0209 14.2718 24.6003V18.2573C14.2718 17.8367 14.4389 17.4334 14.7362 17.136C15.0336 16.8386 15.437 16.6715 15.8575 16.6715ZM1.58575 0.813965C2.00632 0.813965 2.40967 0.981035 2.70705 1.27842C3.00444 1.57581 3.17151 1.97915 3.17151 2.39972V24.6003C3.17151 25.0209 3.00444 25.4242 2.70705 25.7216C2.40967 26.019 2.00632 26.186 1.58575 26.186C1.16519 26.186 0.761843 26.019 0.464457 25.7216C0.16707 25.4242 0 25.0209 0 24.6003V2.39972C0 1.97915 0.16707 1.57581 0.464457 1.27842C0.761843 0.981035 1.16519 0.813965 1.58575 0.813965Z" fill="#EBEBEB"/>
</svg>
