<svg width="169" height="169" viewBox="0 0 169 169" fill="none" xmlns="http://www.w3.org/2000/svg">
<circle cx="5.90909" cy="5.90909" r="5.90909" fill="#F90202"/>
<circle cx="28.3637" cy="5.90909" r="5.90909" fill="#F90202"/>
<circle cx="50.8184" cy="5.90909" r="5.90909" fill="#F90202"/>
<circle cx="73.2726" cy="5.90909" r="5.90909" fill="#F90202"/>
<circle cx="95.7273" cy="5.90909" r="5.90909" fill="#F90202"/>
<circle cx="118.182" cy="5.90909" r="5.90909" fill="#F90202"/>
<circle cx="140.636" cy="5.90909" r="5.90909" fill="#F90202"/>
<circle cx="163.091" cy="5.90909" r="5.90909" fill="#F90202"/>
<circle cx="5.90909" cy="95.7273" r="5.90909" fill="#F90202"/>
<circle cx="28.3637" cy="95.7273" r="5.90909" fill="#F90202"/>
<circle cx="50.8184" cy="95.7273" r="5.90909" fill="#F90202"/>
<circle cx="73.2726" cy="95.7273" r="5.90909" fill="#F90202"/>
<circle cx="95.7273" cy="95.7273" r="5.90909" fill="#F90202"/>
<circle cx="118.182" cy="95.7273" r="5.90909" fill="#F90202"/>
<circle cx="140.636" cy="95.7273" r="5.90909" fill="#F90202"/>
<circle cx="163.091" cy="95.7273" r="5.90909" fill="#F90202"/>
<circle cx="5.90909" cy="50.8182" r="5.90909" fill="#F90202"/>
<circle cx="28.3637" cy="50.8181" r="5.90909" fill="#F90202"/>
<circle cx="50.8184" cy="50.8181" r="5.90909" fill="#F90202"/>
<circle cx="73.2726" cy="50.8181" r="5.90909" fill="#F90202"/>
<circle cx="95.7273" cy="50.8181" r="5.90909" fill="#F90202"/>
<circle cx="118.182" cy="50.8181" r="5.90909" fill="#F90202"/>
<circle cx="140.636" cy="50.8181" r="5.90909" fill="#F90202"/>
<circle cx="163.091" cy="50.8181" r="5.90909" fill="#F90202"/>
<circle cx="5.90909" cy="140.636" r="5.90909" fill="#F90202"/>
<circle cx="28.3637" cy="140.636" r="5.90909" fill="#F90202"/>
<circle cx="50.8184" cy="140.636" r="5.90909" fill="#F90202"/>
<circle cx="73.2726" cy="140.636" r="5.90909" fill="#F90202"/>
<circle cx="95.7273" cy="140.636" r="5.90909" fill="#F90202"/>
<circle cx="118.182" cy="140.636" r="5.90909" fill="#F90202"/>
<circle cx="140.636" cy="140.636" r="5.90909" fill="#F90202"/>
<circle cx="163.091" cy="140.636" r="5.90909" fill="#F90202"/>
<circle cx="5.90909" cy="28.3637" r="5.90909" fill="#F90202"/>
<circle cx="28.3637" cy="28.3637" r="5.90909" fill="#F90202"/>
<circle cx="50.8184" cy="28.3637" r="5.90909" fill="#F90202"/>
<circle cx="73.2726" cy="28.3637" r="5.90909" fill="#F90202"/>
<circle cx="95.7273" cy="28.3637" r="5.90909" fill="#F90202"/>
<circle cx="118.182" cy="28.3637" r="5.90909" fill="#F90202"/>
<circle cx="140.636" cy="28.3637" r="5.90909" fill="#F90202"/>
<circle cx="163.091" cy="28.3637" r="5.90909" fill="#F90202"/>
<circle cx="5.90909" cy="118.182" r="5.90909" fill="#F90202"/>
<circle cx="28.3637" cy="118.182" r="5.90909" fill="#F90202"/>
<circle cx="50.8184" cy="118.182" r="5.90909" fill="#F90202"/>
<circle cx="73.2726" cy="118.182" r="5.90909" fill="#F90202"/>
<circle cx="95.7273" cy="118.182" r="5.90909" fill="#F90202"/>
<circle cx="118.182" cy="118.182" r="5.90909" fill="#F90202"/>
<circle cx="140.636" cy="118.182" r="5.90909" fill="#F90202"/>
<circle cx="163.091" cy="118.182" r="5.90909" fill="#F90202"/>
<circle cx="5.90909" cy="73.2727" r="5.90909" fill="#F90202"/>
<circle cx="28.3637" cy="73.2727" r="5.90909" fill="#F90202"/>
<circle cx="50.8184" cy="73.2727" r="5.90909" fill="#F90202"/>
<circle cx="73.2726" cy="73.2727" r="5.90909" fill="#F90202"/>
<circle cx="95.7273" cy="73.2727" r="5.90909" fill="#F90202"/>
<circle cx="118.182" cy="73.2727" r="5.90909" fill="#F90202"/>
<circle cx="140.636" cy="73.2727" r="5.90909" fill="#F90202"/>
<circle cx="163.091" cy="73.2727" r="5.90909" fill="#F90202"/>
<circle cx="5.90909" cy="163.091" r="5.90909" fill="#F90202"/>
<circle cx="28.3637" cy="163.091" r="5.90909" fill="#F90202"/>
<circle cx="50.8184" cy="163.091" r="5.90909" fill="#F90202"/>
<circle cx="73.2726" cy="163.091" r="5.90909" fill="#F90202"/>
<circle cx="95.7273" cy="163.091" r="5.90909" fill="#F90202"/>
<circle cx="118.182" cy="163.091" r="5.90909" fill="#F90202"/>
<circle cx="140.636" cy="163.091" r="5.90909" fill="#F90202"/>
<circle cx="163.091" cy="163.091" r="5.90909" fill="#F90202"/>
</svg>
