<svg width="40" height="40" viewBox="0 0 40 40" fill="none" xmlns="http://www.w3.org/2000/svg">
<path d="M15 18.3334H11.6667V21.6667H15V18.3334ZM21.6667 18.3334H18.3333V21.6667H21.6667V18.3334ZM28.3333 18.3334H25V21.6667H28.3333V18.3334ZM31.6667 6.66671H30V3.33337H26.6667V6.66671H13.3333V3.33337H10V6.66671H8.33333C6.48333 6.66671 5.01667 8.16671 5.01667 10L5 33.3334C5 34.2174 5.35119 35.0653 5.97631 35.6904C6.60143 36.3155 7.44928 36.6667 8.33333 36.6667H31.6667C33.5 36.6667 35 35.1667 35 33.3334V10C35 8.16671 33.5 6.66671 31.6667 6.66671ZM31.6667 33.3334H8.33333V15H31.6667V33.3334Z" fill="#0B0E19"/>
</svg>
