<svg width="31" height="31" viewBox="0 0 31 31" fill="none" xmlns="http://www.w3.org/2000/svg">
<mask id="mask0_1_2942" style="mask-type:luminance" maskUnits="userSpaceOnUse" x="0" y="1" width="31" height="29">
<path d="M12.2708 12.9167C12.8645 12.9167 13.4524 12.7997 14.0009 12.5725C14.5494 12.3453 15.0477 12.0123 15.4675 11.5925C15.8873 11.1727 16.2203 10.6744 16.4475 10.1259C16.6747 9.57739 16.7917 8.98952 16.7917 8.39583C16.7917 7.80215 16.6747 7.21428 16.4475 6.66579C16.2203 6.11729 15.8873 5.61892 15.4675 5.19912C15.0477 4.77932 14.5494 4.44632 14.0009 4.21913C13.4524 3.99193 12.8645 3.875 12.2708 3.875C11.0718 3.875 9.92194 4.3513 9.07412 5.19912C8.2263 6.04694 7.75 7.19683 7.75 8.39583C7.75 9.59483 8.2263 10.7447 9.07412 11.5925C9.92194 12.4404 11.0718 12.9167 12.2708 12.9167Z" fill="white" stroke="white" stroke-width="4" stroke-linecap="round" stroke-linejoin="round"/>
<path d="M21.0593 4.52087C21.7279 4.92272 22.2811 5.49082 22.665 6.16988C23.0489 6.84894 23.2504 7.61582 23.25 8.39587C23.2504 9.17593 23.0489 9.94281 22.665 10.6219C22.2811 11.3009 21.7279 11.869 21.0593 12.2709" stroke="white" stroke-width="4" stroke-linecap="round" stroke-linejoin="round"/>
<path d="M2.58337 26.35V27.125H21.9584V26.35C21.9584 23.4567 21.9584 22.01 21.3952 20.9044C20.8999 19.9322 20.1095 19.1419 19.1374 18.6465C18.0317 18.0834 16.585 18.0834 13.6917 18.0834H10.85C7.95671 18.0834 6.51004 18.0834 5.40437 18.6465C4.43225 19.1419 3.64188 19.9322 3.14654 20.9044C2.58337 22.01 2.58337 23.4567 2.58337 26.35Z" fill="white" stroke="white" stroke-width="4" stroke-linecap="round" stroke-linejoin="round"/>
<path d="M28.4167 27.125V26.35C28.4167 23.4567 28.4167 22.01 27.8535 20.9043C27.3582 19.9322 26.5678 19.1418 25.5957 18.6465" stroke="white" stroke-width="4" stroke-linecap="round" stroke-linejoin="round"/>
</mask>
<g mask="url(#mask0_1_2942)">
<path d="M0 0H31V31H0V0Z" fill="#222222"/>
</g>
</svg>
