<svg width="24" height="24" viewBox="0 0 24 24" fill="none" xmlns="http://www.w3.org/2000/svg">
<path d="M21 21V5H3V12C3 12.2833 2.904 12.521 2.712 12.713C2.52 12.905 2.28267 13.0007 2 13C1.71667 13 1.479 12.904 1.287 12.712C1.095 12.52 0.999337 12.2827 1 12V5C1 4.45 1.196 3.979 1.588 3.587C1.98 3.195 2.45067 2.99934 3 3H21C21.55 3 22.021 3.196 22.413 3.588C22.805 3.98 23.0007 4.45067 23 5V19C23 19.55 22.804 20.021 22.412 20.413C22.02 20.805 21.5493 21.0007 21 21ZM9 14C7.9 14 6.95834 13.6083 6.175 12.825C5.39167 12.0417 5 11.1 5 10C5 8.9 5.39167 7.95834 6.175 7.175C6.95834 6.39167 7.9 6 9 6C10.1 6 11.0417 6.39167 11.825 7.175C12.6083 7.95834 13 8.9 13 10C13 11.1 12.6083 12.0417 11.825 12.825C11.0417 13.6083 10.1 14 9 14ZM3 22C2.45 22 1.979 21.804 1.587 21.412C1.195 21.02 0.999337 20.5493 1 20V19.2C1 18.6333 1.146 18.1123 1.438 17.637C1.73 17.1617 2.11734 16.7993 2.6 16.55C3.63334 16.0333 4.68334 15.6457 5.75 15.387C6.81667 15.1283 7.9 14.9993 9 15C10.1 15 11.1833 15.1293 12.25 15.388C13.3167 15.6467 14.3667 16.034 15.4 16.55C15.8833 16.8 16.271 17.1627 16.563 17.638C16.855 18.1133 17.0007 18.634 17 19.2V20C17 20.55 16.804 21.021 16.412 21.413C16.02 21.805 15.5493 22.0007 15 22H3Z" fill="#EBEBEB"/>
</svg>
