<svg width="30" height="30" viewBox="0 0 30 30" fill="none" xmlns="http://www.w3.org/2000/svg">
<path d="M8.6875 22L15.75 14.9375L13.9375 13.125L8.65625 18.4063L6.03125 15.7813L4.25 17.5625L8.6875 22ZM2.5 27C1.8125 27 1.22375 26.755 0.733752 26.265C0.243752 25.775 -0.000831211 25.1867 2.12224e-06 24.5V4.5C2.12224e-06 3.8125 0.245002 3.22375 0.735002 2.73375C1.225 2.24375 1.81334 1.99917 2.5 2H12.5L20 9.5V24.5C20 25.1875 19.755 25.7763 19.265 26.2663C18.775 26.7563 18.1867 27.0008 17.5 27H2.5ZM11.25 10.75H17.5L11.25 4.5V10.75Z" fill="#EBEBEB"/>
</svg>
