<svg width="502" height="536" viewBox="0 0 502 536" fill="none" xmlns="http://www.w3.org/2000/svg">
<path d="M463.919 337.465H299.373V235.796H463.919V337.465ZM300.377 336.393H462.915V236.868H300.377V336.393Z" fill="#E0E0E0"/>
<path d="M429.974 290.007H321.411V293.406H429.974V290.007Z" fill="#F0F0F0"/>
<path d="M437.453 302.678H321.411V306.388H437.453V302.678Z" fill="#F0F0F0"/>
<path d="M437.453 315.5H321.411V319.209H437.453V315.5Z" fill="#F0F0F0"/>
<path d="M359.352 271.601H321.411V280.424H359.352V271.601Z" fill="#F0F0F0"/>
<path d="M463.417 236.332H299.905V252.52H463.417V236.332Z" fill="#E0E0E0"/>
<path d="M450.837 250.097C450.626 249.882 452.734 247.17 455.536 244.04C458.337 240.91 460.797 238.541 460.997 238.744C461.198 238.948 459.1 241.671 456.299 244.812C453.497 247.953 451.038 250.311 450.837 250.097Z" fill="white"/>
<path d="M461.018 250.097C460.817 250.311 458.367 247.953 455.556 244.812C452.745 241.671 450.646 238.959 450.857 238.744C451.068 238.53 453.508 240.888 456.319 244.04C459.13 247.192 461.208 249.882 461.018 250.097Z" fill="white"/>
<path d="M261.442 35L97.9309 35V135.607H261.442V35Z" fill="#E6E6E6"/>
<path d="M228.009 88.6857H119.446V92.084H228.009V88.6857Z" fill="#F0F0F0"/>
<path d="M235.489 101.357H119.446V105.066H235.489V101.357Z" fill="#F0F0F0"/>
<path d="M235.489 114.178H119.446V117.887H235.489V114.178Z" fill="#F0F0F0"/>
<path d="M157.387 70.2796H119.446V79.1021H157.387V70.2796Z" fill="#F0F0F0"/>
<path d="M261.442 35L97.9309 35V51.1872L261.442 51.1872V35Z" fill="#E0E0E0"/>
<path d="M248.31 48.6894C248.099 48.4858 250.208 45.7629 253.009 42.6326C255.81 39.5024 258.27 37.1333 258.47 37.3477C258.671 37.5621 256.573 40.2742 253.772 43.4045C250.971 46.5347 248.511 48.8824 248.31 48.6894Z" fill="white"/>
<path d="M258.471 48.6894C258.27 48.9038 255.82 46.5454 253.009 43.4045C250.198 40.2635 248.099 37.5621 248.31 37.3477C248.521 37.1333 250.961 39.4917 253.772 42.6326C256.583 45.7736 258.681 48.4858 258.471 48.6894Z" fill="white"/>
<path d="M199.515 221.892H35L35 120.213L199.515 120.213V221.892ZM36.004 220.82H198.511V121.285L36.004 121.285L36.004 220.82Z" fill="#E0E0E0"/>
<path d="M165.58 174.435H57.0179V177.833H165.58V174.435Z" fill="#F0F0F0"/>
<path d="M173.06 187.106H57.0179V190.815H173.06V187.106Z" fill="#F0F0F0"/>
<path d="M173.06 199.927H57.0179V203.636H173.06V199.927Z" fill="#F0F0F0"/>
<path d="M94.959 156.029H57.0179V164.851H94.959V156.029Z" fill="#F0F0F0"/>
<path d="M199.014 120.749L35.5022 120.749V136.936H199.014V120.749Z" fill="#E0E0E0"/>
<path d="M389.382 245.187H196.313V429.743H389.382V245.187Z" fill="#E6E6E6"/>
<path d="M206.021 187.053H54.7788L54.7788 354.831H206.021V187.053Z" fill="#F0F0F0"/>
<path d="M206.021 187.053H54.7788V205.33H206.021V187.053Z" fill="#E0E0E0"/>
<path d="M67.2688 196.004C67.2413 196.666 67.0321 197.306 66.6672 197.843C66.3022 198.38 65.7977 198.791 65.2161 199.024C64.6345 199.258 64.0014 199.304 63.3955 199.157C62.7896 199.01 62.2376 198.676 61.8078 198.196C61.3781 197.717 61.0896 197.114 60.9781 196.461C60.8667 195.809 60.9372 195.135 61.1809 194.525C61.4246 193.915 61.8308 193.394 62.349 193.028C62.8673 192.662 63.4748 192.467 64.0962 192.466C64.9555 192.489 65.7715 192.873 66.3659 193.536C66.9604 194.199 67.285 195.086 67.2688 196.004Z" fill="white"/>
<path d="M80.1502 196.004C80.1246 196.67 79.9162 197.313 79.5508 197.853C79.1855 198.394 78.6793 198.807 78.0954 199.043C77.5115 199.279 76.8756 199.326 76.2668 199.179C75.658 199.031 75.1032 198.696 74.6715 198.215C74.2398 197.733 73.9501 197.127 73.8387 196.471C73.7272 195.815 73.7988 195.139 74.0446 194.526C74.2904 193.914 74.6995 193.392 75.221 193.025C75.7425 192.659 76.3534 192.465 76.9776 192.466C77.8368 192.489 78.6529 192.873 79.2473 193.536C79.8418 194.199 80.1664 195.086 80.1502 196.004Z" fill="white"/>
<path d="M93.0311 196.004C93.0055 196.67 92.797 197.313 92.4317 197.853C92.0663 198.394 91.5602 198.807 90.9763 199.043C90.3924 199.279 89.7565 199.326 89.1477 199.179C88.5389 199.031 87.9841 198.696 87.5524 198.215C87.1206 197.733 86.831 197.127 86.7196 196.471C86.6081 195.815 86.6797 195.139 86.9255 194.526C87.1713 193.914 87.5804 193.392 88.1019 193.025C88.6234 192.659 89.2342 192.465 89.8585 192.466C90.7177 192.489 91.5337 192.873 92.1282 193.536C92.7227 194.199 93.0473 195.086 93.0311 196.004Z" fill="white"/>
<path d="M442.323 71.6946L249.254 71.6946V277.154H442.323V71.6946Z" fill="#F0F0F0"/>
<path d="M442.323 71.6946L249.254 71.6946V95.761L442.323 95.761V71.6946Z" fill="#E0E0E0"/>
<path d="M265.699 83.4866C265.664 84.3615 265.388 85.2061 264.907 85.9154C264.426 86.6247 263.761 87.1675 262.993 87.4765C262.226 87.7854 261.39 87.8469 260.59 87.6532C259.791 87.4595 259.062 87.0193 258.494 86.3871C257.926 85.7549 257.545 84.9587 257.398 84.0972C257.25 83.2357 257.343 82.347 257.665 81.5414C257.986 80.7357 258.522 80.0486 259.206 79.5654C259.89 79.0822 260.692 78.8242 261.512 78.8234C262.646 78.8515 263.723 79.358 264.508 80.232C265.292 81.1059 265.721 82.2762 265.699 83.4866Z" fill="white"/>
<path d="M281.432 80.3349C281.988 80.9802 282.355 81.7862 282.485 82.6524C282.616 83.5186 282.505 84.4067 282.166 85.206C281.828 86.0053 281.276 86.6805 280.58 87.1474C279.885 87.6144 279.076 87.8525 278.254 87.832C277.433 87.8115 276.635 87.5334 275.961 87.0323C275.286 86.5312 274.765 85.8293 274.461 85.014C274.158 84.1987 274.086 83.3061 274.254 82.4473C274.422 81.5886 274.824 80.8017 275.408 80.1848C276.226 79.3534 277.32 78.9023 278.449 78.9305C279.578 78.9586 280.651 79.4636 281.432 80.3349Z" fill="white"/>
<path d="M299.614 83.4866C299.579 84.3615 299.304 85.2061 298.823 85.9154C298.342 86.6247 297.676 87.1675 296.909 87.4765C296.141 87.7854 295.306 87.8469 294.506 87.6532C293.706 87.4595 292.977 87.0193 292.409 86.3871C291.842 85.7549 291.46 84.9587 291.313 84.0972C291.166 83.2357 291.258 82.347 291.58 81.5414C291.901 80.7357 292.437 80.0486 293.122 79.5654C293.806 79.0822 294.607 78.8242 295.428 78.8234C296.561 78.8515 297.638 79.358 298.423 80.232C299.207 81.1059 299.636 82.2762 299.614 83.4866Z" fill="white"/>
<path d="M405.456 485.755C405.456 485.905 335.738 486.034 249.765 486.034C163.793 486.034 94.0449 485.905 94.0449 485.755C94.0449 485.605 163.753 485.477 249.765 485.477C335.778 485.477 405.456 485.616 405.456 485.755Z" fill="#263238"/>
<path d="M337.525 354.521C322.013 342.954 318.499 321.482 319.112 302.175C319.212 298.959 318.881 295.55 320.316 292.731C321.752 289.912 325.105 287.971 327.806 289.322C330.045 290.448 331.019 293.235 332.274 295.54C333.949 298.609 336.403 301.111 339.352 302.754C341.27 303.826 343.649 304.469 345.547 303.355C348.157 301.822 348.459 297.995 348.438 294.779C348.438 288.797 348.405 282.822 348.338 276.855C348.158 273.65 348.463 270.436 349.242 267.335C350.175 264.291 352.254 261.472 355.095 260.614C357.936 259.756 361.48 261.525 362.123 264.655C362.234 265.981 362.264 267.313 362.213 268.643C362.294 269.983 362.876 271.452 364.051 271.859C365.225 272.267 366.45 271.334 367.354 270.391C370.446 267.175 372.555 262.983 374.512 258.845C376.47 254.707 378.388 250.451 381.199 246.924C384.01 243.398 387.896 240.6 392.243 240.332C396.59 240.064 401.118 242.915 402.203 247.418C403.287 251.92 400.827 256.519 398.187 260.174C394.202 265.601 389.505 270.384 384.241 274.378C383.214 274.977 382.393 275.913 381.902 277.048C381.249 279.192 383.147 281.336 385.125 282.011C387.364 282.804 389.793 282.558 392.153 282.858C394.512 283.158 397.022 284.251 397.916 286.61C399.14 289.89 396.57 293.321 394.05 295.572C388.99 300.074 383.244 303.617 377.062 306.045C374.854 306.903 372.534 307.664 370.747 309.315C368.96 310.966 367.896 313.849 368.97 316.111C370.045 318.373 372.806 319.092 375.125 318.631C377.444 318.17 379.502 316.84 381.711 315.951C385.837 314.289 391.159 314.589 393.759 318.395C394.565 319.706 395.075 321.198 395.249 322.755C395.423 324.312 395.257 325.891 394.763 327.367C393.758 330.306 392.212 333 390.215 335.289C383.639 343.678 375.095 350.052 365.456 353.76C355.888 357.298 347.023 358.262 337.515 354.543" fill="#092847"/>
<path d="M397.785 242.98C397.785 242.98 397.695 243.087 397.494 243.28L396.6 244.127C395.817 244.877 394.663 245.97 393.207 247.418C389.079 251.51 385.246 255.928 381.741 260.635C379.502 263.605 377.183 266.971 374.713 270.626C372.243 274.282 369.693 278.227 367.163 282.418C364.466 286.838 361.995 291.412 359.763 296.119C358.599 298.573 357.575 301.136 356.521 303.751L353.408 311.738C349.306 321.797 345.732 332.094 342.706 342.579C340.267 351.158 338.587 359.962 337.686 368.875C337.102 374.891 337.008 380.949 337.404 386.981C337.565 389.125 337.716 390.765 337.856 391.88C337.916 392.416 337.957 392.845 337.997 393.156V393.595C337.954 393.456 337.923 393.312 337.906 393.167C337.856 392.856 337.796 392.438 337.716 391.902C337.535 390.83 337.344 389.136 337.163 386.992C336.679 380.948 336.713 374.87 337.264 368.832C338.109 359.881 339.753 351.036 342.173 342.418C345.175 331.904 348.738 321.581 352.846 311.502L356.039 303.548C357.093 300.943 358.127 298.359 359.302 295.893C361.549 291.173 364.039 286.588 366.761 282.161C369.332 277.873 371.922 273.992 374.362 270.369C376.801 266.746 379.161 263.358 381.39 260.4C384.931 255.705 388.815 251.317 393.006 247.278C394.492 245.852 395.677 244.78 396.48 244.062L397.413 243.258C397.528 243.152 397.652 243.058 397.785 242.98Z" fill="#263238"/>
<path d="M359.432 295.872C359.291 295.43 359.193 294.974 359.141 294.511C358.981 293.621 358.8 292.367 358.589 290.737C358.157 287.521 357.716 283.115 357.244 278.238C356.772 273.36 356.24 268.943 355.798 265.76C355.567 264.173 355.366 262.897 355.226 262.008C355.116 261.552 355.059 261.084 355.055 260.614C355.228 261.043 355.353 261.493 355.427 261.954C355.647 262.833 355.898 264.098 356.18 265.695C356.752 268.911 357.314 273.285 357.786 278.173C358.258 283.062 358.659 287.35 358.971 290.684C359.121 292.184 359.252 293.46 359.352 294.478C359.43 294.938 359.457 295.406 359.432 295.872Z" fill="#263238"/>
<path d="M398.066 288.175C397.578 288.289 397.08 288.353 396.58 288.368C395.576 288.464 394.151 288.593 392.384 288.808C388.85 289.215 383.99 289.965 378.659 291.037C373.328 292.109 368.539 293.321 365.095 294.253C363.378 294.725 361.993 295.154 361.079 295.443C360.591 295.628 360.086 295.758 359.573 295.829C360.037 295.58 360.521 295.376 361.019 295.218C361.962 294.864 363.328 294.371 365.035 293.846C368.458 292.774 373.247 291.498 378.599 290.405C383.132 289.479 387.706 288.799 392.303 288.368C394.08 288.207 395.516 288.143 396.52 288.121C397.036 288.084 397.554 288.102 398.066 288.175Z" fill="#263238"/>
<path d="M342.666 341.668C342.559 341.513 342.471 341.343 342.405 341.164L341.742 339.674C341.17 338.377 340.397 336.458 339.473 334.11C337.605 329.393 335.226 322.79 332.696 315.457C330.166 308.125 327.837 301.521 326.069 296.751C325.206 294.436 324.493 292.538 323.961 291.123L323.399 289.59C323.321 289.413 323.267 289.226 323.238 289.033C323.345 289.188 323.433 289.357 323.499 289.536L324.162 291.027C324.724 292.324 325.507 294.243 326.431 296.59C328.298 301.307 330.678 307.911 333.208 315.243C335.738 322.576 338.067 329.179 339.834 333.949C340.698 336.265 341.411 338.162 341.933 339.577C342.164 340.188 342.354 340.649 342.505 341.11C342.583 341.287 342.637 341.475 342.666 341.668Z" fill="#263238"/>
<path d="M393.95 324.012C393.789 324.111 393.617 324.186 393.438 324.237L391.952 324.773L386.46 326.671C381.822 328.279 375.416 330.573 368.388 333.103C361.36 335.633 354.924 337.884 350.256 339.384C347.926 340.146 346.029 340.725 344.714 341.11L343.198 341.528C343.021 341.588 342.84 341.628 342.655 341.646C342.816 341.548 342.988 341.472 343.168 341.421L344.653 340.885L350.145 338.988C354.784 337.38 361.189 335.086 368.217 332.556C375.245 330.026 381.671 327.775 386.34 326.274C388.679 325.513 390.566 324.934 391.892 324.548L393.408 324.13C393.584 324.07 393.766 324.031 393.95 324.012Z" fill="#263238"/>
<path d="M373.026 63.977L367.855 65.9495L365.637 58.7349C361.56 45.4314 348.569 38.3669 336.631 42.8586C324.693 47.3503 318.338 61.9402 322.414 75.2437L324.633 82.4583L319.443 84.4415C317.463 85.2612 315.856 86.8638 314.955 88.9161C314.053 90.9685 313.928 93.3127 314.603 95.4616L328.991 142.404C329.289 143.468 329.785 144.457 330.449 145.312C331.112 146.167 331.93 146.871 332.854 147.382C333.777 147.893 334.787 148.201 335.824 148.287C336.861 148.373 337.904 148.235 338.89 147.882L392.473 127.418C394.479 126.6 396.109 124.983 397.021 122.908C397.933 120.832 398.055 118.46 397.363 116.291L382.966 69.3477C382.659 68.2869 382.156 67.3029 381.485 66.4544C380.815 65.6058 379.991 64.9102 379.064 64.4089C378.136 63.9077 377.123 63.6111 376.086 63.5369C375.049 63.4627 374.008 63.6124 373.026 63.977ZM332.183 71.481C331.084 68.0219 331.281 64.2428 332.734 60.9356C334.186 57.6283 336.781 55.0495 339.974 53.7394C341.551 53.1633 343.221 52.9323 344.883 53.0601C346.545 53.188 348.166 53.672 349.65 54.4834C351.133 55.2948 352.448 56.4169 353.516 57.7828C354.585 59.1486 355.384 60.7303 355.868 62.4333L358.076 69.6479L334.392 78.6955L332.183 71.481ZM362.303 113.139L365.978 125.124C366.045 125.364 366.024 125.623 365.917 125.847C365.81 126.07 365.627 126.241 365.406 126.324L360.255 128.286C360.05 128.347 359.831 128.321 359.644 128.213C359.457 128.105 359.316 127.924 359.251 127.707L355.546 115.776C353.504 115.657 351.543 114.875 349.929 113.534C348.314 112.193 347.121 110.357 346.51 108.272C345.637 105.516 345.796 102.506 346.955 99.8722C348.113 97.2386 350.181 95.1856 352.725 94.1431C353.981 93.6848 355.311 93.5013 356.635 93.6034C357.959 93.7055 359.25 94.0911 360.431 94.7374C361.613 95.3836 362.66 96.2772 363.512 97.3648C364.363 98.4525 365 99.7119 365.386 101.068C366.032 103.186 366.085 105.459 365.539 107.609C364.994 109.758 363.872 111.691 362.313 113.171L362.303 113.139Z" fill="#092847"/>
<path d="M367.625 65.8209C367.625 65.971 358.036 69.8194 346.109 74.3969C334.181 78.9743 324.453 82.6513 324.402 82.5441C324.352 82.4369 333.991 78.5562 345.928 73.9681C357.866 69.3799 367.574 65.6815 367.625 65.8209Z" fill="#263238"/>
<path d="M379.01 67.7933C379.054 67.8863 379.091 67.9831 379.12 68.0827C379.201 68.2971 379.291 68.5759 379.411 68.9189C379.673 69.7015 380.034 70.7842 380.486 72.1349L384.341 84.1199C385.948 89.2011 387.865 95.2258 389.994 101.915C390.998 105.27 392.182 108.765 393.287 112.442C393.878 114.337 394.133 116.333 394.04 118.327C393.955 119.365 393.678 120.374 393.227 121.297C392.744 122.217 392.1 123.028 391.329 123.687C389.778 124.896 388.056 125.834 386.229 126.464L381.058 128.447L371.269 132.188L354.693 138.492L343.498 142.694L340.486 143.766L339.683 144.045C339.597 144.085 339.506 144.111 339.412 144.12C339.412 144.12 339.492 144.12 339.663 143.991L340.446 143.659L343.458 142.447L354.593 138.074L371.139 131.642L380.907 127.868L386.078 125.874C387.854 125.27 389.525 124.361 391.028 123.184C391.745 122.572 392.345 121.819 392.795 120.965C393.22 120.111 393.476 119.173 393.548 118.209C393.64 116.288 393.395 114.364 392.825 112.539C391.741 108.894 390.596 105.367 389.562 102.012C387.474 95.3115 385.546 89.2655 384.02 84.1842C382.494 79.1029 381.209 75.0186 380.325 72.1456C379.903 70.7413 379.582 69.6479 379.321 68.8546L379.08 67.997C379.05 67.932 379.026 67.8637 379.01 67.7933Z" fill="#263238"/>
<path d="M350.737 53.0104C350.737 53.0104 350.205 52.7317 349.221 52.3029C347.818 51.7275 346.335 51.4086 344.833 51.3595C342.608 51.278 340.392 51.7247 338.348 52.6674C335.861 53.8412 333.735 55.7398 332.213 58.1453C330.681 60.5439 329.859 63.3785 329.854 66.2818C329.875 68.6613 330.213 71.0256 330.858 73.3034C331.38 75.2544 331.922 76.8088 332.283 77.8916C332.497 78.4415 332.671 79.0076 332.806 79.5853C332.52 79.0711 332.282 78.5291 332.093 77.9666C331.681 76.8946 331.089 75.3724 330.506 73.4106C329.792 71.1089 329.402 68.7061 329.352 66.2818C329.325 63.2688 330.166 60.3199 331.761 57.8344C333.336 55.3411 335.549 53.3837 338.137 52.1957C340.245 51.2479 342.53 50.8298 344.813 50.9736C346.348 51.0571 347.855 51.4385 349.261 52.0992C349.637 52.2844 350 52.4994 350.345 52.7424C350.488 52.8094 350.62 52.8998 350.737 53.0104Z" fill="#263238"/>
<path d="M351.199 94.9578C351.359 94.8541 351.527 94.7645 351.701 94.6898C352.204 94.4477 352.724 94.2504 353.257 94.1002C354.104 93.8335 354.977 93.6752 355.858 93.6285C357.056 93.5597 358.256 93.7531 359.382 94.1967C361.952 95.1615 364.311 97.9594 365.476 101.701C366.035 103.708 366.035 105.846 365.476 107.854C364.857 110.033 363.747 112.017 362.243 113.632L362.303 113.343C363.639 117.255 365.095 121.501 366.601 125.928L366.691 126.196L366.44 126.292L364.141 127.107L359.121 128.897L358.87 128.983L358.789 128.715C357.414 124.277 355.908 120.139 354.773 116.076L354.994 116.258C353.032 116.084 351.16 115.298 349.613 113.997C348.213 112.845 347.065 111.382 346.249 109.709C345.513 108.224 345.147 106.563 345.185 104.885C345.232 103.169 345.633 101.485 346.36 99.9543C347.087 98.4235 348.123 97.0833 349.392 96.0298C349.914 95.577 350.501 95.2152 351.129 94.9578C350.562 95.3171 350.012 95.7071 349.482 96.1263C348.088 97.3857 347.02 99.0061 346.38 100.832C345.831 102.209 345.574 103.699 345.628 105.195C345.681 106.691 346.045 108.155 346.691 109.483C347.493 111.093 348.614 112.498 349.974 113.6C351.45 114.837 353.235 115.582 355.105 115.744H355.275L355.326 115.905C356.43 119.893 357.946 124.063 359.342 128.522L359.01 128.351L364.03 126.56L366.319 125.735L366.159 126.099C364.663 121.672 363.217 117.416 361.892 113.503V113.343L362.012 113.214C363.472 111.666 364.56 109.765 365.185 107.672C365.717 105.751 365.717 103.707 365.185 101.786C364.091 98.1845 361.832 95.4509 359.382 94.4861C358.297 94.0397 357.14 93.8318 355.978 93.8751C355.111 93.8963 354.249 94.0221 353.408 94.2503C351.912 94.6469 351.209 95.0114 351.199 94.9578Z" fill="#263238"/>
<path d="M320.165 404.487L219.876 403.994C214.084 403.96 208.542 401.473 204.466 397.079C200.391 392.685 198.115 386.744 198.139 380.56L199.204 112.12C199.215 109.057 199.793 106.026 200.902 103.2C202.012 100.375 203.632 97.8106 205.67 95.6542C207.709 93.4978 210.125 91.7914 212.781 90.6326C215.437 89.4739 218.282 88.8854 221.151 88.901L321.43 89.3941C327.222 89.4253 332.765 91.9096 336.843 96.3014C340.92 100.693 343.198 106.633 343.177 112.817L342.113 381.246C342.101 384.311 341.524 387.343 340.415 390.17C339.305 392.996 337.685 395.562 335.647 397.72C333.609 399.878 331.193 401.586 328.537 402.748C325.88 403.909 323.036 404.5 320.165 404.487Z" fill="#455A64"/>
<path d="M321.28 98.624H301.842C301.208 98.6365 300.582 98.7824 300.001 99.0532C299.419 99.3239 298.894 99.7144 298.454 100.202C298.013 100.69 297.668 101.266 297.436 101.896C297.204 102.527 297.091 103.2 297.103 103.877V107.639C297.115 108.316 297.002 108.989 296.77 109.619C296.538 110.248 296.193 110.823 295.752 111.31C295.312 111.797 294.786 112.187 294.205 112.456C293.624 112.726 292.998 112.87 292.364 112.882L254.473 112.699C253.192 112.663 251.976 112.085 251.093 111.092C250.21 110.099 249.732 108.772 249.765 107.404V103.641C249.797 102.274 249.321 100.949 248.44 99.9565C247.559 98.9639 246.346 98.3845 245.066 98.3452H238.229L221.211 98.2595C217.163 98.2338 213.271 99.9216 210.386 102.953C207.501 105.985 205.859 110.114 205.82 114.436L204.816 376.454C204.806 378.598 205.193 380.723 205.953 382.708C206.712 384.692 207.831 386.498 209.244 388.021C210.658 389.544 212.338 390.755 214.19 391.584C216.042 392.414 218.028 392.846 220.036 392.856L320.115 393.349C322.124 393.359 324.116 392.946 325.976 392.134C327.836 391.322 329.528 390.127 330.955 388.617C332.382 387.107 333.517 385.311 334.295 383.333C335.072 381.355 335.477 379.232 335.486 377.087L336.49 115.068C336.514 110.735 334.925 106.568 332.073 103.484C329.221 100.4 325.339 98.6523 321.28 98.624Z" fill="white"/>
<path d="M307.802 358.391L233.386 358.048C232.613 358.048 231.99 357.148 232 356.054L232.08 335.268C232.08 334.196 232.713 333.274 233.486 333.274L307.903 333.639C308.331 333.718 308.714 333.97 308.972 334.344C309.23 334.717 309.344 335.183 309.288 335.643L309.218 356.408C309.218 357.512 308.575 358.402 307.802 358.391Z" fill="#092847"/>
<path d="M255.178 350V340.269H256.357V348.955H260.88V350H255.178ZM265.517 350.152C264.859 350.152 264.28 349.995 263.783 349.682C263.289 349.368 262.903 348.929 262.624 348.366C262.348 347.802 262.21 347.143 262.21 346.389C262.21 345.629 262.348 344.965 262.624 344.398C262.903 343.831 263.289 343.391 263.783 343.077C264.28 342.764 264.859 342.607 265.517 342.607C266.176 342.607 266.753 342.764 267.247 343.077C267.744 343.391 268.131 343.831 268.406 344.398C268.685 344.965 268.824 345.629 268.824 346.389C268.824 347.143 268.685 347.802 268.406 348.366C268.131 348.929 267.744 349.368 267.247 349.682C266.753 349.995 266.176 350.152 265.517 350.152ZM265.517 349.145C266.018 349.145 266.43 349.016 266.753 348.76C267.076 348.503 267.315 348.166 267.47 347.748C267.625 347.33 267.703 346.877 267.703 346.389C267.703 345.901 267.625 345.447 267.47 345.025C267.315 344.604 267.076 344.263 266.753 344.004C266.43 343.744 266.018 343.614 265.517 343.614C265.017 343.614 264.605 343.744 264.282 344.004C263.959 344.263 263.72 344.604 263.565 345.025C263.409 345.447 263.332 345.901 263.332 346.389C263.332 346.877 263.409 347.33 263.565 347.748C263.72 348.166 263.959 348.503 264.282 348.76C264.605 349.016 265.017 349.145 265.517 349.145ZM273.482 352.889C272.94 352.889 272.475 352.819 272.085 352.68C271.695 352.544 271.371 352.363 271.111 352.138C270.854 351.916 270.65 351.679 270.498 351.425L271.391 350.798C271.493 350.931 271.621 351.083 271.776 351.254C271.931 351.429 272.144 351.579 272.413 351.706C272.685 351.836 273.042 351.901 273.482 351.901C274.071 351.901 274.557 351.758 274.941 351.473C275.324 351.188 275.516 350.741 275.516 350.133V348.651H275.421C275.338 348.784 275.221 348.948 275.069 349.145C274.92 349.338 274.705 349.511 274.423 349.663C274.144 349.812 273.767 349.886 273.292 349.886C272.703 349.886 272.174 349.747 271.705 349.468C271.239 349.189 270.87 348.784 270.598 348.251C270.329 347.719 270.194 347.073 270.194 346.313C270.194 345.565 270.325 344.914 270.588 344.36C270.851 343.803 271.217 343.372 271.686 343.068C272.155 342.76 272.696 342.607 273.311 342.607C273.786 342.607 274.163 342.686 274.442 342.844C274.724 343 274.939 343.177 275.088 343.377C275.24 343.573 275.357 343.734 275.44 343.861H275.554V342.702H276.637V350.209C276.637 350.836 276.494 351.346 276.209 351.739C275.927 352.135 275.547 352.425 275.069 352.609C274.594 352.795 274.065 352.889 273.482 352.889ZM273.444 348.879C273.894 348.879 274.274 348.776 274.584 348.57C274.895 348.364 275.131 348.068 275.292 347.681C275.454 347.295 275.535 346.832 275.535 346.294C275.535 345.768 275.455 345.304 275.297 344.902C275.139 344.499 274.904 344.184 274.594 343.956C274.283 343.728 273.9 343.614 273.444 343.614C272.969 343.614 272.573 343.734 272.256 343.975C271.943 344.216 271.707 344.539 271.548 344.944C271.393 345.35 271.315 345.8 271.315 346.294C271.315 346.801 271.395 347.249 271.553 347.639C271.714 348.025 271.952 348.329 272.266 348.551C272.582 348.769 272.975 348.879 273.444 348.879ZM278.69 350V342.702H279.811V350H278.69ZM279.26 341.485C279.041 341.485 278.853 341.411 278.694 341.262C278.539 341.113 278.462 340.934 278.462 340.725C278.462 340.516 278.539 340.337 278.694 340.188C278.853 340.039 279.041 339.965 279.26 339.965C279.478 339.965 279.665 340.039 279.82 340.188C279.979 340.337 280.058 340.516 280.058 340.725C280.058 340.934 279.979 341.113 279.82 341.262C279.665 341.411 279.478 341.485 279.26 341.485ZM282.986 345.61V350H281.865V342.702H282.948V343.842H283.043C283.214 343.472 283.474 343.174 283.822 342.949C284.171 342.721 284.621 342.607 285.172 342.607C285.666 342.607 286.098 342.708 286.469 342.911C286.839 343.11 287.128 343.415 287.334 343.823C287.539 344.229 287.642 344.742 287.642 345.363V350H286.521V345.439C286.521 344.865 286.372 344.419 286.074 344.099C285.777 343.776 285.368 343.614 284.849 343.614C284.491 343.614 284.171 343.692 283.889 343.847C283.61 344.002 283.39 344.229 283.228 344.526C283.067 344.824 282.986 345.185 282.986 345.61Z" fill="#E8E8E3"/>
<path d="M248.243 175.647L222.42 175.522L222.399 180.582L248.221 180.707L248.243 175.647Z" fill="#FC2626" fill-opacity="0.86"/>
<path d="M323.94 206.714C324.143 206.692 324.342 206.641 324.533 206.564C324.81 206.448 325.052 206.25 325.23 205.994C325.407 205.738 325.514 205.434 325.537 205.116C325.537 203.412 325.537 200.925 325.537 197.73C325.537 196.133 325.537 194.343 325.537 192.37C325.537 191.888 325.537 191.384 325.537 190.88C325.602 190.391 325.502 189.894 325.255 189.476C325.117 189.276 324.937 189.112 324.73 188.999C324.523 188.886 324.294 188.825 324.061 188.822H322.494H307.987L224.012 188.49C223.797 188.486 223.585 188.537 223.392 188.64C223.2 188.743 223.034 188.893 222.908 189.079C222.665 189.499 222.573 189.997 222.647 190.484C222.647 191.556 222.647 192.628 222.647 193.7C222.647 195.844 222.647 197.988 222.647 200.132C222.647 201.204 222.647 202.276 222.647 203.348C222.605 203.847 222.605 204.349 222.647 204.848C222.699 205.063 222.797 205.261 222.933 205.428C223.069 205.595 223.239 205.727 223.43 205.813C223.628 205.897 223.839 205.937 224.052 205.931H229.163L251.461 206.06L289.212 206.306L314.663 206.521L321.581 206.607H323.378C323.79 206.607 323.99 206.607 323.99 206.607H323.378H321.581H314.663H289.212L251.461 206.478L229.163 206.381H224.052C223.771 206.394 223.491 206.342 223.229 206.231C222.965 206.111 222.73 205.928 222.542 205.695C222.354 205.463 222.218 205.188 222.145 204.891C222.087 204.61 222.066 204.321 222.084 204.034V203.24C222.084 202.168 222.084 201.096 222.084 200.024C222.084 197.88 222.084 195.736 222.084 193.592C222.084 192.52 222.084 191.448 222.084 190.376C222.065 190.091 222.065 189.804 222.084 189.519C222.122 189.204 222.236 188.904 222.416 188.651C222.589 188.392 222.818 188.182 223.084 188.038C223.35 187.894 223.644 187.821 223.942 187.825L307.916 188.318L322.424 188.425H323.99C324.266 188.426 324.538 188.497 324.783 188.633C325.028 188.769 325.238 188.967 325.396 189.208C325.679 189.674 325.793 190.234 325.717 190.784C325.717 191.288 325.717 191.792 325.717 192.274C325.717 194.225 325.717 196.015 325.717 197.634C325.717 200.85 325.647 203.316 325.627 205.031C325.602 205.36 325.49 205.676 325.303 205.94C325.117 206.204 324.863 206.405 324.573 206.521C324.383 206.647 324.164 206.713 323.94 206.714Z" fill="#E0E0E0"/>
<path d="M277.405 193.871H230.177V198.599H277.405V193.871Z" fill="#FC2626" fill-opacity="0.86"/>
<path d="M247.844 222.125L222.022 222L222 227.06L247.823 227.185L247.844 222.125Z" fill="#FC2626" fill-opacity="0.86"/>
<path d="M323.288 252.874C323.49 252.847 323.691 252.808 323.89 252.756C324.17 252.661 324.428 252.502 324.647 252.292C324.865 252.081 325.038 251.822 325.155 251.534C325.313 251.101 325.375 250.635 325.336 250.173C325.336 249.658 325.336 249.101 325.336 248.479C325.336 247.235 325.336 245.82 325.336 244.191V237.384C325.384 236.891 325.282 236.395 325.045 235.969C324.797 235.532 324.407 235.207 323.95 235.057C323.45 234.962 322.941 234.933 322.434 234.972H307.987L224.303 234.639C223.853 234.64 223.419 234.816 223.081 235.134C222.743 235.451 222.524 235.889 222.466 236.365C222.466 237.384 222.466 238.509 222.466 239.581C222.466 241.725 222.466 243.869 222.466 246.013C222.466 247.085 222.466 248.157 222.466 249.229C222.428 249.73 222.449 250.234 222.526 250.73C222.651 251.165 222.909 251.542 223.259 251.802C223.63 252.053 224.066 252.173 224.504 252.145H225.9H228.801L251.02 252.263L288.639 252.51L314.001 252.724L320.898 252.81H322.695H323.298H322.695H320.898H314.001H288.639L251 252.767L228.781 252.681H224.414C223.871 252.715 223.332 252.561 222.877 252.242C222.421 251.904 222.087 251.408 221.934 250.837C221.844 250.293 221.817 249.738 221.853 249.186C221.853 248.114 221.853 247.042 221.853 245.97C221.853 243.826 221.853 241.682 221.853 239.538C221.853 238.466 221.853 237.394 221.853 236.322C221.927 235.709 222.207 235.146 222.641 234.737C223.075 234.329 223.634 234.104 224.213 234.103L307.896 234.596L322.344 234.714C322.882 234.679 323.422 234.719 323.95 234.832C324.472 235.014 324.912 235.396 325.185 235.904C325.445 236.376 325.557 236.925 325.506 237.469C325.506 237.973 325.506 238.466 325.506 238.96C325.506 240.9 325.506 242.679 325.506 244.32C325.506 245.96 325.506 247.343 325.506 248.608C325.506 249.219 325.506 249.787 325.506 250.312C325.543 250.791 325.471 251.273 325.296 251.716C325.165 252.012 324.977 252.274 324.743 252.485C324.509 252.696 324.235 252.851 323.94 252.938C323.721 252.958 323.5 252.936 323.288 252.874Z" fill="#E0E0E0"/>
<path d="M247.872 269.97L222.049 269.845L222.028 274.905L247.851 275.03L247.872 269.97Z" fill="#FC2626" fill-opacity="0.86"/>
<path d="M323.087 301.018C323.29 300.992 323.491 300.953 323.689 300.9C323.968 300.805 324.226 300.648 324.444 300.439C324.662 300.23 324.836 299.974 324.954 299.688C325.112 299.255 325.174 298.79 325.135 298.327C325.135 297.802 325.135 297.255 325.135 296.622C325.135 295.39 325.135 293.964 325.135 292.334V285.527C325.183 285.034 325.081 284.538 324.844 284.112C324.59 283.683 324.203 283.364 323.75 283.212C323.25 283.113 322.741 283.08 322.233 283.115H307.786L224.103 282.783C223.652 282.784 223.218 282.96 222.88 283.277C222.542 283.595 222.324 284.032 222.265 284.509C222.265 285.581 222.265 286.653 222.265 287.725C222.265 289.869 222.265 292.013 222.265 294.157C222.265 295.229 222.265 296.301 222.265 297.373C222.228 297.87 222.248 298.371 222.325 298.863C222.446 299.3 222.705 299.679 223.058 299.935C223.427 300.192 223.864 300.312 224.303 300.278H228.671L250.889 300.407L288.509 300.653L313.87 300.868L320.768 300.953H322.565C322.966 300.953 323.167 300.953 323.167 300.953C323.167 300.953 322.966 300.953 322.565 300.953H320.768H313.87H288.509L250.889 300.835L228.671 300.739H224.303C223.76 300.778 223.22 300.624 222.767 300.299C222.31 299.962 221.977 299.465 221.823 298.895C221.733 298.35 221.706 297.796 221.743 297.244C221.743 296.172 221.743 295.1 221.743 294.028C221.743 291.884 221.743 289.74 221.743 287.596C221.743 286.524 221.743 285.452 221.743 284.327C221.814 283.715 222.092 283.151 222.525 282.743C222.957 282.334 223.515 282.108 224.092 282.108L307.776 282.601L322.223 282.719C322.761 282.683 323.301 282.723 323.83 282.837C324.351 283.019 324.791 283.4 325.065 283.909C325.324 284.381 325.437 284.929 325.386 285.474C325.386 285.978 325.386 286.481 325.386 286.964C325.386 288.904 325.386 290.684 325.386 292.324C325.386 293.964 325.386 295.347 325.386 296.612C325.386 297.223 325.386 297.791 325.386 298.316C325.425 298.796 325.352 299.278 325.175 299.721C325.045 300.016 324.856 300.279 324.622 300.49C324.389 300.7 324.115 300.855 323.82 300.943C323.584 301.029 323.333 301.054 323.087 301.018Z" fill="#E0E0E0"/>
<path d="M276.174 241.687L228.947 241.458L228.927 246.185L276.154 246.414L276.174 241.687Z" fill="#FC2626" fill-opacity="0.86"/>
<path d="M233.44 292.27C233.41 292.701 233.262 293.114 233.015 293.456C232.768 293.799 232.432 294.056 232.049 294.197C231.666 294.337 231.253 294.355 230.861 294.247C230.469 294.139 230.115 293.911 229.843 293.59C229.572 293.27 229.394 292.871 229.333 292.444C229.271 292.016 229.328 291.579 229.498 291.186C229.667 290.793 229.94 290.462 230.284 290.234C230.628 290.005 231.027 289.889 231.432 289.901C231.991 289.934 232.515 290.202 232.891 290.645C233.267 291.089 233.464 291.672 233.44 292.27Z" fill="#FC2626" fill-opacity="0.86"/>
<path d="M239.613 292.621C239.633 292.923 239.594 293.227 239.499 293.512C239.404 293.798 239.256 294.059 239.062 294.281C238.869 294.503 238.634 294.679 238.374 294.8C238.114 294.921 237.833 294.983 237.55 294.983C237.266 294.983 236.985 294.921 236.725 294.8C236.465 294.679 236.231 294.503 236.037 294.281C235.844 294.059 235.695 293.798 235.6 293.512C235.505 293.227 235.467 292.923 235.486 292.621C235.467 292.319 235.505 292.016 235.6 291.73C235.695 291.444 235.844 291.183 236.037 290.961C236.231 290.74 236.465 290.563 236.725 290.442C236.985 290.321 237.266 290.259 237.55 290.259C237.833 290.259 238.114 290.321 238.374 290.442C238.634 290.563 238.869 290.74 239.062 290.961C239.256 291.183 239.404 291.444 239.499 291.73C239.594 292.016 239.633 292.319 239.613 292.621Z" fill="#FC2626" fill-opacity="0.86"/>
<path d="M246.018 292.653C245.989 293.084 245.841 293.497 245.594 293.839C245.347 294.182 245.011 294.439 244.628 294.58C244.245 294.72 243.832 294.738 243.44 294.63C243.048 294.522 242.694 294.294 242.422 293.973C242.151 293.653 241.973 293.254 241.912 292.827C241.85 292.399 241.907 291.962 242.077 291.569C242.246 291.176 242.519 290.845 242.863 290.617C243.207 290.388 243.606 290.273 244.01 290.284C244.569 290.32 245.092 290.588 245.467 291.031C245.843 291.474 246.041 292.056 246.018 292.653Z" fill="#FC2626" fill-opacity="0.86"/>
<path d="M252.414 292.685C252.384 293.117 252.237 293.529 251.99 293.871C251.742 294.214 251.407 294.471 251.024 294.612C250.641 294.753 250.228 294.77 249.835 294.662C249.443 294.554 249.089 294.326 248.818 294.006C248.546 293.685 248.368 293.286 248.307 292.859C248.245 292.432 248.303 291.994 248.472 291.601C248.641 291.209 248.914 290.877 249.258 290.649C249.602 290.42 250.001 290.305 250.406 290.316C250.964 290.352 251.487 290.62 251.863 291.063C252.238 291.506 252.436 292.088 252.414 292.685Z" fill="#FC2626" fill-opacity="0.86"/>
<path d="M258.809 292.707C258.782 293.139 258.636 293.552 258.39 293.896C258.144 294.24 257.808 294.499 257.425 294.642C257.043 294.784 256.629 294.803 256.236 294.696C255.843 294.589 255.488 294.362 255.216 294.041C254.943 293.721 254.764 293.322 254.702 292.894C254.64 292.467 254.697 292.029 254.866 291.635C255.035 291.242 255.308 290.91 255.653 290.681C255.997 290.453 256.396 290.337 256.801 290.348C257.358 290.384 257.879 290.651 258.255 291.092C258.63 291.532 258.829 292.112 258.809 292.707Z" fill="#FC2626" fill-opacity="0.86"/>
<path d="M265.215 292.739C265.187 293.168 265.043 293.58 264.799 293.923C264.555 294.266 264.223 294.526 263.843 294.67C263.463 294.814 263.052 294.836 262.66 294.734C262.268 294.632 261.913 294.409 261.638 294.094C261.363 293.779 261.181 293.385 261.113 292.961C261.045 292.536 261.094 292.1 261.256 291.705C261.417 291.311 261.683 290.975 262.021 290.74C262.358 290.504 262.753 290.379 263.157 290.38C263.722 290.403 264.256 290.664 264.642 291.106C265.028 291.548 265.234 292.135 265.215 292.739Z" fill="#FC2626" fill-opacity="0.86"/>
<path d="M271.833 292.452C271.852 292.755 271.814 293.058 271.719 293.343C271.624 293.629 271.475 293.891 271.282 294.112C271.088 294.334 270.854 294.51 270.594 294.631C270.334 294.752 270.053 294.814 269.769 294.814C269.486 294.814 269.205 294.752 268.945 294.631C268.685 294.51 268.45 294.334 268.257 294.112C268.063 293.891 267.915 293.629 267.82 293.343C267.725 293.058 267.686 292.755 267.706 292.452C267.686 292.15 267.725 291.847 267.82 291.561C267.915 291.276 268.063 291.014 268.257 290.792C268.45 290.571 268.685 290.394 268.945 290.273C269.205 290.153 269.486 290.09 269.769 290.09C270.053 290.09 270.334 290.153 270.594 290.273C270.854 290.394 271.088 290.571 271.282 290.792C271.475 291.014 271.624 291.276 271.719 291.561C271.814 291.847 271.852 292.15 271.833 292.452Z" fill="#FC2626" fill-opacity="0.86"/>
<path d="M278.228 292.485C278.201 292.914 278.056 293.326 277.813 293.669C277.569 294.012 277.237 294.272 276.857 294.416C276.477 294.56 276.065 294.582 275.674 294.48C275.282 294.377 274.927 294.155 274.652 293.84C274.377 293.525 274.194 293.131 274.126 292.706C274.058 292.282 274.108 291.846 274.269 291.451C274.431 291.056 274.697 290.721 275.034 290.485C275.372 290.25 275.767 290.125 276.17 290.126C276.736 290.148 277.27 290.409 277.656 290.851C278.041 291.293 278.247 291.881 278.228 292.485Z" fill="#FC2626" fill-opacity="0.86"/>
<path d="M284.624 292.517C284.596 292.948 284.45 293.362 284.204 293.706C283.958 294.05 283.623 294.309 283.24 294.452C282.857 294.594 282.443 294.613 282.05 294.506C281.657 294.399 281.303 294.172 281.03 293.851C280.757 293.531 280.579 293.132 280.516 292.704C280.454 292.277 280.511 291.839 280.68 291.445C280.849 291.052 281.123 290.72 281.467 290.491C281.811 290.262 282.21 290.147 282.616 290.158C283.172 290.194 283.694 290.461 284.069 290.901C284.444 291.342 284.643 291.922 284.624 292.517Z" fill="#FC2626" fill-opacity="0.86"/>
<path d="M275.537 137.763C276.235 137.435 276.827 136.895 277.239 136.211C277.651 135.527 277.866 134.728 277.857 133.914C277.883 133.385 277.808 132.856 277.636 132.359C277.464 131.862 277.2 131.408 276.858 131.024C276.517 130.64 276.106 130.334 275.65 130.125C275.194 129.916 274.703 129.808 274.207 129.808C273.711 129.808 273.22 129.916 272.764 130.125C272.309 130.334 271.898 130.64 271.556 131.024C271.215 131.408 270.95 131.862 270.778 132.359C270.607 132.856 270.532 133.385 270.558 133.914C270.542 134.736 270.755 135.544 271.17 136.237C271.584 136.929 272.182 137.475 272.887 137.806C267.264 138.706 267.515 145.224 267.515 145.224L280.808 145.288C280.808 145.288 281.12 138.653 275.537 137.763Z" fill="#FC2626" fill-opacity="0.86"/>
<path d="M297.138 149.492L249.76 149.262L249.734 155.308L297.113 155.538L297.138 149.492Z" fill="#FC2626" fill-opacity="0.86"/>
<path d="M122.96 180.825H122.488L121.123 180.932C120.384 180.98 119.649 181.083 118.924 181.243C118.455 181.313 117.989 181.41 117.529 181.532L115.972 181.993C113.324 182.861 110.825 184.183 108.573 185.906C105.598 188.212 103.114 191.164 101.284 194.568C100.208 196.53 99.3525 198.621 98.7338 200.796C98.0837 203.161 97.7094 205.602 97.6194 208.064C97.5595 209.358 97.5796 210.654 97.6796 211.945C97.6796 212.599 97.8503 213.253 97.9306 213.918C97.9982 214.588 98.1157 215.251 98.282 215.901C99.1848 220.202 101.017 224.219 103.631 227.631C106.246 231.043 109.571 233.755 113.342 235.551C116.071 236.808 118.996 237.51 121.966 237.62C125.034 237.8 128.105 237.33 131.002 236.237L131.886 235.883H132.006L132.107 235.947L144.767 242.808L144.396 243.151C143.04 238.67 141.735 234.328 140.47 230.158V229.998L140.581 229.88C143.652 226.577 145.932 222.532 147.227 218.088C148.4 214.025 148.743 209.74 148.231 205.524C147.776 201.777 146.648 198.159 144.908 194.868C143.408 192.042 141.473 189.505 139.185 187.364C137.297 185.67 135.207 184.25 132.97 183.14C131.278 182.361 129.515 181.768 127.709 181.372L125.701 181.018L124.245 180.9L123.362 180.836H123.061C123.161 180.824 123.262 180.824 123.362 180.836H124.255L125.711 180.9L127.719 181.211C129.547 181.578 131.334 182.15 133.051 182.915C135.326 184.011 137.453 185.428 139.376 187.128C141.706 189.26 143.682 191.797 145.219 194.632C147.008 197.958 148.171 201.625 148.643 205.427C149.197 209.709 148.878 214.068 147.709 218.206C146.405 222.742 144.09 226.873 140.962 230.244L141.022 229.965C142.287 234.136 143.603 238.477 144.968 242.947L145.159 243.601L144.586 243.29L131.926 236.44H132.147L131.243 236.794C128.29 237.903 125.163 238.384 122.037 238.209C119.002 238.086 116.016 237.359 113.232 236.065C107.92 233.636 103.501 229.415 100.651 224.048C99.3401 221.569 98.3825 218.896 97.8101 216.115C97.6534 215.448 97.536 214.772 97.4587 214.089C97.3784 213.414 97.2479 212.749 97.2178 212.084C96.946 208.27 97.3236 204.435 98.3322 200.764C98.9663 198.559 99.8461 196.442 100.953 194.461C102.826 191.026 105.362 188.055 108.392 185.745C110.681 184.017 113.222 182.706 115.912 181.865L117.489 181.436C117.952 181.321 118.422 181.232 118.894 181.168C119.627 181.023 120.368 180.937 121.113 180.911L122.488 180.857C122.645 180.835 122.803 180.824 122.96 180.825Z" fill="#092847"/>
<path d="M128.683 205.824H126.826L122.81 199.799V195.844C122.81 195.844 119.938 195.651 120.279 200.829C120.621 206.006 120.279 204.688 120.279 204.688C120.279 204.688 114.185 204.688 113.683 205.277C113.181 205.867 113.151 212.149 113.081 215.654C113.042 216.499 113.269 217.334 113.726 218.025C114.183 218.717 114.842 219.225 115.601 219.471C115.813 219.533 116.033 219.566 116.253 219.567C117.78 219.567 125.54 218.249 125.54 218.249H128.743L128.683 205.824Z" fill="#092847"/>
<path d="M133.994 204.763L132.85 218.313H129.677V205.041L133.994 204.763Z" fill="#092847"/>
<path d="M171.835 480.62V471.455L156.443 471.337L156.313 485.198L157.267 485.273C161.513 485.562 178.873 485.991 181.724 485.048C184.897 483.997 171.835 480.62 171.835 480.62Z" fill="#1E2772"/>
<path d="M182.085 484.19C182.085 484.34 176.322 484.469 169.224 484.469C162.126 484.469 156.363 484.34 156.363 484.19C156.363 484.04 162.126 483.911 169.224 483.911C176.322 483.911 182.085 484.04 182.085 484.19Z" fill="#263238"/>
<path d="M172.106 482.496C171.975 482.421 172.106 481.939 172.417 481.424C172.728 480.91 173.15 480.695 173.25 480.803C173.351 480.91 173.14 481.317 172.839 481.757C172.537 482.196 172.236 482.571 172.106 482.496Z" fill="#263238"/>
<path d="M173.089 483.097C172.949 483.097 173.019 482.496 173.32 481.928C173.621 481.36 174.023 481.017 174.133 481.103C174.244 481.189 174.063 481.671 173.782 482.175C173.501 482.679 173.22 483.15 173.089 483.097Z" fill="#263238"/>
<path d="M161.002 484.147C160.941 484.147 160.711 483.954 160.379 483.547C159.975 483.023 159.524 482.542 159.034 482.111C158.552 481.699 157.977 481.429 157.367 481.328C156.895 481.264 156.594 481.328 156.564 481.264C156.534 481.199 156.825 480.974 157.377 480.931C158.106 480.915 158.817 481.173 159.385 481.66C159.918 482.124 160.367 482.687 160.711 483.322C160.941 483.794 161.062 484.104 161.002 484.147Z" fill="#263238"/>
<path d="M172.156 480.771C172.226 480.899 171.965 481.221 171.523 481.392C171.081 481.564 170.69 481.499 170.67 481.392C170.65 481.285 170.961 481.06 171.342 480.91C171.724 480.76 172.075 480.642 172.156 480.771Z" fill="#263238"/>
<path d="M171.915 479.881C171.915 480.042 171.513 480.17 170.991 480.181C170.469 480.192 170.058 480.063 170.068 479.913C170.078 479.763 170.489 479.623 170.991 479.613C171.493 479.602 171.895 479.731 171.915 479.881Z" fill="#263238"/>
<path d="M209.736 480.62V471.455L194.344 471.337L194.214 485.059L195.168 485.134C199.415 485.423 216.784 485.991 219.625 485.048C222.798 483.997 209.736 480.62 209.736 480.62Z" fill="#1E2772"/>
<path d="M219.986 484.212C219.986 484.362 214.233 484.49 207.125 484.49C200.017 484.49 194.274 484.362 194.274 484.212C194.274 484.062 200.027 483.933 207.125 483.933C214.223 483.933 219.986 484.062 219.986 484.212Z" fill="#263238"/>
<path d="M210.007 482.496C209.886 482.421 210.007 481.939 210.318 481.424C210.629 480.91 211.051 480.695 211.151 480.803C211.252 480.91 211.041 481.317 210.74 481.757C210.438 482.196 210.137 482.571 210.007 482.496Z" fill="#263238"/>
<path d="M210.991 483.097C210.86 483.097 210.921 482.496 211.232 481.928C211.543 481.36 211.935 481.017 212.045 481.103C212.155 481.189 211.965 481.671 211.684 482.175C211.402 482.679 211.131 483.15 210.991 483.097Z" fill="#263238"/>
<path d="M198.902 484.147C198.842 484.147 198.621 483.954 198.28 483.547C197.876 483.023 197.425 482.542 196.935 482.111C196.452 481.699 195.878 481.429 195.268 481.328C194.806 481.264 194.495 481.328 194.465 481.264C194.435 481.199 194.726 480.974 195.278 480.931C196.007 480.915 196.718 481.173 197.286 481.66C197.821 482.121 198.271 482.684 198.611 483.322C198.842 483.794 198.963 484.104 198.902 484.147Z" fill="#263238"/>
<path d="M210.057 480.771C210.127 480.899 209.866 481.221 209.424 481.392C208.983 481.564 208.591 481.499 208.571 481.392C208.551 481.285 208.862 481.06 209.244 480.91C209.625 480.76 209.976 480.642 210.057 480.771Z" fill="#263238"/>
<path d="M209.836 479.881C209.836 480.042 209.434 480.17 208.912 480.181C208.39 480.192 207.988 480.063 207.999 479.913C208.009 479.763 208.41 479.623 208.912 479.613C209.414 479.602 209.836 479.731 209.836 479.881Z" fill="#263238"/>
<path d="M266.442 208.44C266.04 208 265.046 208.215 265.046 208.215C265.146 207.597 265.146 206.966 265.046 206.349C264.865 205.749 263.6 205.867 263.6 205.867C263.542 205.361 263.542 204.85 263.6 204.345C263.61 204.233 263.588 204.12 263.536 204.022C263.484 203.924 263.405 203.846 263.309 203.798C262.711 203.537 262.068 203.413 261.422 203.433C260.649 202.844 263.781 198.159 264.946 196.658C266.11 195.158 265.9 193.989 264.865 193.989C264.153 193.989 260.498 198.491 259.374 200.003C258.249 201.515 255.267 205.717 255.167 202.361C255.066 199.006 253.801 196.476 253.008 196.047C252.215 195.619 251.372 196.626 251.803 197.559C252.183 198.618 252.419 199.73 252.506 200.861C252.615 201.761 252.578 202.675 252.396 203.562C252.063 205.212 251.61 206.833 251.04 208.407H250.96C250.96 208.407 229.053 230.844 227.466 232.442C226.051 233.878 197.577 230.737 191.865 230.094C189.923 229.791 187.963 229.647 186.001 229.665C183.521 229.783 183.08 230.158 180.61 230.191C174.372 230.264 168.149 230.849 161.996 231.938C159.209 232.444 156.606 233.757 154.471 235.734C152.336 237.712 150.75 240.277 149.887 243.151C144.134 262.34 131.103 307.76 128.803 333.274C127.066 336.638 125.498 340.098 124.105 343.64C122.488 348.336 122.88 348.496 123.422 348.604C124.888 348.893 126.554 340.467 127.177 342.504C127.799 344.541 124.014 352.549 125.55 352.784C127.558 353.085 129.155 344.208 129.346 343.501C129.536 342.793 130.53 343.019 130.35 343.683C130.058 344.627 127.237 354.628 129.205 354.95C130.289 355.121 130.41 353.01 130.41 353.01C130.41 353.01 132.418 343.437 133.331 343.63C134.245 343.822 133.271 349.472 132.809 351.359C132.347 353.245 132.99 354.199 133.934 353.739C134.576 353.417 136.112 347.682 136.534 345.816C136.956 343.951 138.01 338.784 139.426 341.775C140.841 344.766 142.99 346.503 143.873 346.545C144.073 346.521 144.26 346.433 144.412 346.294C144.564 346.155 144.674 345.97 144.727 345.763C144.78 345.557 144.774 345.339 144.709 345.136C144.645 344.933 144.525 344.756 144.365 344.627C143.605 343.834 142.953 342.932 142.428 341.947C141.959 341.179 141.62 340.33 141.424 339.438C141.019 337.66 140.784 335.842 140.721 334.014L140.56 332.942C142.809 321.053 149.285 286.16 158.632 263.873L162.467 272.299L164.134 278.538L153.913 305.477L197.507 304.866L191.001 278.13L198.903 250.258C207.447 250.462 229.384 250.805 233.039 249.036C237.637 246.892 261.422 214.818 261.422 214.818C262.972 213.532 264.457 212.158 265.869 210.702C265.869 210.702 267.315 209.404 266.442 208.44Z" fill="#FFBE9D"/>
<path d="M151.995 285.57C153.261 280.96 159.756 258.17 159.756 258.17C159.756 258.17 162.949 276.748 162.106 278.988C161.33 280.906 160.413 282.756 159.365 284.52C151.995 296.494 152.959 302.486 152.959 302.486L197.487 301.039C197.587 294.393 193.902 278.934 193.139 276.469C192.376 274.003 194.916 265.931 194.916 265.931C194.916 265.931 199.936 260.475 199.756 257.666C199.66 255.143 199.368 252.633 198.882 250.162L225.99 251.234L225.137 231.616L186.202 227.457C184.846 231.541 172.588 229.537 172.588 229.537C159.355 230.008 158.532 232.603 153.03 237.169C147.528 241.736 138.421 280.928 138.421 280.928L151.995 285.57Z" fill="#092847"/>
<path d="M178.32 280.928C177.549 281.075 176.763 281.119 175.981 281.057C174.525 281.057 172.527 280.95 170.329 280.714C168.13 280.478 166.142 280.146 164.726 279.846C163.946 279.738 163.18 279.529 162.447 279.224C163.232 279.224 164.015 279.303 164.786 279.46C166.212 279.653 168.19 279.921 170.379 280.156C172.567 280.392 174.555 280.553 175.991 280.66C176.774 280.671 177.554 280.761 178.32 280.928Z" fill="#263238"/>
<path d="M181.372 276.887C180.601 277.291 179.784 277.589 178.943 277.777C174.937 278.9 170.805 279.424 166.664 279.331C165.807 279.361 164.95 279.274 164.114 279.074C164.959 278.96 165.812 278.913 166.664 278.934C168.24 278.881 170.409 278.763 172.798 278.463C175.188 278.162 177.316 277.734 178.822 277.391C179.659 277.152 180.511 276.984 181.372 276.887Z" fill="#263238"/>
<path d="M196.352 258.856C196.332 259.673 196.228 260.486 196.041 261.279C195.78 262.769 195.379 264.805 194.866 267.035C194.354 269.265 193.862 271.323 193.421 272.717C193.243 273.514 192.98 274.288 192.638 275.022C192.694 274.207 192.835 273.401 193.059 272.62C193.441 270.948 193.873 269.018 194.354 266.907C194.836 264.795 195.298 262.865 195.68 261.193C195.816 260.388 196.041 259.603 196.352 258.856Z" fill="#263238"/>
<path d="M152.467 282.836C150.145 282.453 147.852 281.884 145.61 281.132C143.319 280.56 141.07 279.807 138.883 278.881C141.205 279.27 143.497 279.84 145.741 280.585C148.032 281.155 150.281 281.908 152.467 282.836Z" fill="#263238"/>
<path d="M199.364 249.926C198.985 249.996 198.598 249.996 198.219 249.926C197.171 249.811 196.141 249.548 195.157 249.143C193.515 248.485 192.02 247.466 190.768 246.153C189.516 244.841 188.535 243.263 187.888 241.522C187.173 239.606 186.868 237.544 186.995 235.486C187.039 233.789 187.515 232.137 188.37 230.705C188.972 229.741 189.87 229.032 190.91 228.7C191.188 228.619 191.475 228.579 191.764 228.583C191.964 228.583 192.065 228.583 192.065 228.583C192.065 228.583 191.643 228.583 190.971 228.872C190.016 229.248 189.207 229.954 188.671 230.877C187.306 233.171 186.924 237.362 188.38 241.275C189.058 243.12 190.118 244.777 191.483 246.12C192.6 247.22 193.888 248.105 195.288 248.736C196.602 249.291 197.969 249.69 199.364 249.926Z" fill="#263238"/>
<path d="M222.768 250.848C222.516 247.561 222.436 244.261 222.527 240.964C222.448 237.67 222.542 234.374 222.808 231.091C223.059 234.375 223.139 237.671 223.049 240.964C223.133 244.262 223.039 247.562 222.768 250.848Z" fill="#263238"/>
<path d="M185.941 228.658C186.051 226.267 186.282 223.566 186.282 223.566C186.282 223.566 191.824 222.912 192.155 216.801C192.487 210.691 192.155 196.594 192.155 196.594L182.115 191.105L170.971 200.464L172.688 231.016L182.909 231.713C183.69 231.736 184.448 231.427 185.016 230.854C185.585 230.282 185.917 229.492 185.941 228.658Z" fill="#FFBE9D"/>
<path d="M186.935 211.967C186.935 211.967 186.935 212.084 186.845 212.224C186.77 212.325 186.673 212.405 186.563 212.457C186.453 212.51 186.332 212.533 186.212 212.524C185.57 212.524 184.947 211.731 184.726 210.809C184.621 210.362 184.621 209.894 184.726 209.447C184.747 209.252 184.813 209.066 184.918 208.905C185.023 208.744 185.164 208.613 185.329 208.525C185.464 208.466 185.615 208.466 185.75 208.525C185.85 208.579 185.931 208.665 185.981 208.772C186.051 208.954 185.981 209.072 185.981 209.061C185.981 209.051 185.981 208.954 185.881 208.847C185.828 208.77 185.751 208.717 185.664 208.697C185.577 208.677 185.486 208.693 185.409 208.74C185.286 208.819 185.183 208.931 185.111 209.064C185.039 209.197 185 209.347 184.997 209.501C184.913 209.9 184.913 210.314 184.997 210.712C185.198 211.548 185.74 212.224 186.222 212.288C186.316 212.302 186.412 212.295 186.504 212.267C186.595 212.239 186.681 212.192 186.754 212.127C186.875 212.042 186.915 211.956 186.935 211.967Z" fill="#EB996E"/>
<path d="M195.599 193.292C194.826 190.484 192.025 189.09 189.475 188.318C185.589 187.139 181.393 186.624 177.598 188.114C173.802 189.605 169.244 192.22 169.244 196.69C167.005 196.498 165.72 198.588 164.837 201.182C164.272 202.763 163.933 204.425 163.833 206.113C163.552 211.966 162.015 220.049 158.461 224.337C156.453 226.728 153.672 228.379 152.528 231.359C151.524 233.943 152.046 237.008 151.112 239.624C150.279 241.929 148.441 243.569 147.096 245.574C145.725 247.848 144.919 250.457 144.752 253.155C144.585 255.854 145.064 258.553 146.142 261C147.229 263.384 148.758 265.507 150.638 267.239C152.518 268.972 154.708 270.277 157.076 271.077C161.766 272.6 166.767 272.652 171.483 271.227C175.023 270.323 178.325 268.575 181.142 266.113C184.024 263.6 186.003 260.101 186.744 256.208C187.457 251.834 186.312 247.385 185.459 243.033C182.788 229.279 183.551 228.561 186.925 215.794C187.005 215.568 187.045 215.333 187.105 215.107C187.166 214.882 187.196 214.775 187.236 214.604C187.332 214.099 187.382 213.586 187.387 213.071C186.894 213.266 186.359 213.308 185.845 213.19C185.331 213.072 184.859 212.8 184.485 212.406C184.11 211.986 183.848 211.465 183.728 210.899C183.608 210.332 183.634 209.742 183.802 209.19C184.039 208.586 184.392 208.043 184.838 207.594C185.285 207.145 185.814 206.801 186.393 206.585C187.507 206.092 188.702 205.835 189.796 205.288C192.115 204.109 193.722 201.665 194.816 199.102C195.716 197.327 195.994 195.267 195.599 193.292Z" fill="#263238"/>
<path d="M187.336 212.256C187.549 212.591 187.724 212.95 187.858 213.328C188.16 214.003 188.561 214.957 189.003 216.062L189.083 216.265H188.873L187.869 216.362C187.176 216.362 186.593 216.501 185.911 216.49C185.851 216.476 185.796 216.446 185.751 216.403C185.705 216.36 185.67 216.305 185.65 216.244C185.62 216.146 185.62 216.041 185.65 215.944C185.673 215.799 185.703 215.656 185.74 215.515L185.921 214.754C186.012 214.246 186.153 213.75 186.342 213.274C186.324 213.792 186.253 214.306 186.132 214.807L185.991 215.568C185.941 215.826 185.85 216.222 185.991 216.19C186.493 216.19 187.206 216.072 187.869 216.029L188.873 215.933L188.742 216.169C188.31 215.097 187.949 214.089 187.738 213.392C187.553 213.036 187.418 212.654 187.336 212.256Z" fill="#1E2772"/>
<path d="M152.959 302.486L197.487 301.039L216.864 381.804L213.3 474.446H189.756L192.637 383.776L175.419 327.55L178.069 478.037L154.275 478.412L151.775 336.962C151.664 333.027 150.459 324.162 150.911 320.26L152.959 302.486Z" fill="#263238"/>
<path d="M181.343 328.697C180.614 328.746 179.882 328.699 179.164 328.557C177.819 328.386 175.981 328.086 173.963 327.657C171.945 327.228 170.138 326.735 168.833 326.338C168.135 326.174 167.46 325.915 166.825 325.566C166.825 325.406 170.098 326.242 174.114 327.11C178.13 327.978 181.363 328.536 181.343 328.697Z" fill="#455A64"/>
<path d="M213.059 469.364C213.059 469.515 207.728 469.643 201.152 469.643C194.575 469.643 189.234 469.515 189.234 469.364C189.234 469.214 194.565 469.086 201.152 469.086C207.738 469.086 213.059 469.204 213.059 469.364Z" fill="#455A64"/>
<path d="M177.859 474.124C177.859 474.285 172.678 474.403 166.293 474.403C159.907 474.403 154.736 474.285 154.736 474.124C154.736 473.963 159.917 473.845 166.293 473.845C172.668 473.845 177.859 473.974 177.859 474.124Z" fill="#455A64"/>
<path d="M174.786 473.738C174.646 473.738 174.023 440.86 173.391 400.306C172.758 359.752 172.387 326.853 172.517 326.853C172.648 326.853 173.29 359.72 173.913 400.295C174.535 440.871 174.937 473.738 174.786 473.738Z" fill="#455A64"/>
<path d="M209.896 469.364C209.885 469.218 209.885 469.071 209.896 468.925V467.639C209.896 466.481 209.976 464.819 210.037 462.707C210.177 458.419 210.378 452.191 210.629 444.558C211.171 429.207 211.934 408.046 212.768 384.687C212.768 384.462 212.768 384.248 212.768 384.055V384.13C207.497 361.618 202.728 341.185 199.264 326.403L195.248 308.918C194.786 306.871 194.435 305.273 194.184 304.159C194.063 303.633 193.983 303.226 193.912 302.915C193.873 302.775 193.85 302.632 193.842 302.486C193.894 302.621 193.935 302.761 193.963 302.904C194.043 303.204 194.143 303.612 194.284 304.126C194.555 305.198 194.947 306.828 195.449 308.865C196.453 313.002 197.868 318.963 199.635 326.306C203.129 341.078 207.948 361.457 213.29 384.001V384.076C213.29 384.269 213.29 384.494 213.29 384.709C212.396 408.067 211.583 429.218 210.991 444.569C210.679 452.212 210.418 458.398 210.238 462.707C210.137 464.851 210.057 466.481 210.007 467.639C210.007 468.185 209.946 468.614 209.936 468.925C209.938 469.073 209.924 469.22 209.896 469.364Z" fill="#455A64"/>
<path d="M202.216 382.168C200.524 382.762 198.782 383.175 197.015 383.401C194.846 383.797 192.999 384.076 192.166 384.119V383.905C192.437 383.99 192.577 384.044 192.577 384.087C192.577 384.13 192.406 384.087 192.125 384.087H191.523L192.125 383.894C192.908 383.647 194.756 383.24 196.924 382.822C198.664 382.419 200.436 382.2 202.216 382.168Z" fill="#455A64"/>
<path d="M201.804 385.245C200.238 385.321 198.668 385.246 197.115 385.019C195.547 384.985 193.985 384.802 192.447 384.473C195.584 384.199 198.743 384.46 201.804 385.245Z" fill="#455A64"/>
<path opacity="0.2" d="M152.769 304.191C153.296 304.914 153.96 305.51 154.718 305.94C155.476 306.371 156.31 306.626 157.166 306.688C158.959 306.915 160.773 306.879 162.558 306.581C174.053 305.22 186.232 303.966 197.487 301.039C182.919 301.907 167.527 301.618 152.959 302.486L152.809 303.816" fill="black"/>
<g opacity="0.2">
<path d="M167.778 326.113L175.991 360.138L175.419 327.55L167.778 326.113Z" fill="black"/>
</g>
</svg>
