<svg width="35" height="35" viewBox="0 0 35 35" fill="none" xmlns="http://www.w3.org/2000/svg">
<path d="M31.5 0H3.5C1.575 0 0 1.47656 0 3.28125V31.7188C0 33.5234 1.575 35 3.5 35H31.5C33.425 35 35 33.5234 35 31.7188V3.28125C35 1.47656 33.425 0 31.5 0ZM30.3333 30.625H4.66667V4.375H30.3333V30.625ZM9.33333 19.6875H25.6667V21.875H9.33333V19.6875ZM9.33333 24.0625H25.6667V26.25H9.33333V24.0625ZM11.6667 9.84375C11.6668 9.41271 11.7575 8.98591 11.9336 8.58773C12.1097 8.18956 12.3677 7.8278 12.693 7.5231C13.0182 7.21841 13.4042 6.97676 13.8291 6.81193C14.2539 6.64711 14.7092 6.56236 15.169 6.5625C15.6288 6.56264 16.084 6.64769 16.5088 6.81277C16.9335 6.97786 17.3194 7.21975 17.6444 7.52465C17.9694 7.82955 18.2271 8.19147 18.4029 8.58976C18.5787 8.98804 18.6692 9.41489 18.669 9.84594C18.6687 10.7165 18.2995 11.5512 17.6427 12.1666C16.9859 12.7819 16.0952 13.1275 15.1667 13.1272C14.2381 13.1269 13.3477 12.7808 12.6913 12.165C12.0349 11.5493 11.6664 10.7143 11.6667 9.84375ZM17.5 13.125H12.8333C10.9083 13.125 9.33333 14.1094 9.33333 15.3125V17.5H21V15.3125C21 14.1094 19.425 13.125 17.5 13.125Z" fill="#EBEBEB"/>
</svg>
