<svg width="25" height="27" viewBox="0 0 25 27" fill="none" xmlns="http://www.w3.org/2000/svg">
<path d="M21.5417 3.16672H16.1425C15.878 2.41167 15.3854 1.75746 14.7329 1.29461C14.0803 0.831753 13.3 0.58313 12.5 0.58313C11.7 0.58313 10.9197 0.831753 10.2671 1.29461C9.61458 1.75746 9.12198 2.41167 8.8575 3.16672H3.45833C2.77382 3.16877 2.11793 3.4416 1.6339 3.92562C1.14987 4.40965 0.877044 5.06554 0.875 5.75006V23.8334C0.877044 24.5179 1.14987 25.1738 1.6339 25.6578C2.11793 26.1419 2.77382 26.4147 3.45833 26.4167H21.5417C22.2262 26.4147 22.8821 26.1419 23.3661 25.6578C23.8501 25.1738 24.123 24.5179 24.125 23.8334V5.75006C24.123 5.06554 23.8501 4.40965 23.3661 3.92562C22.8821 3.4416 22.2262 3.16877 21.5417 3.16672ZM12.5 3.16672C12.7555 3.16672 13.0052 3.24248 13.2176 3.38441C13.43 3.52634 13.5956 3.72807 13.6933 3.96409C13.7911 4.20011 13.8167 4.45982 13.7668 4.71038C13.717 4.96094 13.594 5.19109 13.4133 5.37174C13.2327 5.55238 13.0026 5.6754 12.752 5.72524C12.5014 5.77508 12.2417 5.7495 12.0057 5.65174C11.7697 5.55397 11.5679 5.38842 11.426 5.176C11.2841 4.96359 11.2083 4.71386 11.2083 4.45839C11.2094 4.11613 11.3458 3.78819 11.5878 3.54617C11.8298 3.30416 12.1577 3.16775 12.5 3.16672ZM9.91667 9.62506L13.5204 13.234L16.7754 9.97897L15.0833 8.33339H20.25V13.5001L18.6018 11.8067L13.523 16.8894L9.91667 13.2805L6.57642 16.6181L4.75 14.7917L9.91667 9.62506ZM21.5417 22.5417H3.45833V19.9584H21.5417V22.5417Z" fill="#222222"/>
</svg>
