<svg width="21" height="19" viewBox="0 0 21 19" fill="none" xmlns="http://www.w3.org/2000/svg">
<path d="M1.80259 0.486397L19.9777 0.486397C20.2455 0.486397 20.5023 0.592778 20.6916 0.782139C20.881 0.971499 20.9874 1.22833 20.9874 1.49612V17.6517C20.9874 17.9195 20.881 18.1764 20.6916 18.3657C20.5023 18.5551 20.2455 18.6615 19.9777 18.6615H1.80259C1.53479 18.6615 1.27796 18.5551 1.0886 18.3657C0.899244 18.1764 0.792862 17.9195 0.792862 17.6517L0.792862 1.49612C0.792862 1.22833 0.899244 0.971499 1.0886 0.782139C1.27796 0.592778 1.53479 0.486397 1.80259 0.486397ZM18.9679 4.76562L10.9628 11.9347L2.81231 4.7434L2.81231 16.642H18.9679V4.76562ZM3.32829 2.50585L10.9517 9.23265L18.4651 2.50585L3.32829 2.50585Z" fill="white"/>
</svg>
